<?xml version="1.0" encoding="UTF-8"?> <svg xmlns="http://www.w3.org/2000/svg" width="1160" height="603" viewBox="0 0 1160 603" fill="none"><g clip-path="url(#clip0_53_242)"><path d="M847.561 601.607L844.385 602.219L843.236 599.225L842.087 596.232L844.031 594.288L845.974 592.344L848.968 593.493L851.961 594.642L851.35 597.819L850.738 600.995L847.561 601.607ZM840.068 594.587C838.937 594.551 835.852 592.704 833.213 590.483L828.414 586.444L825.213 580.128C823.452 576.654 820.682 568.888 819.059 562.871L816.106 551.93L808.391 546.386L800.675 540.842L801.607 535.098C802.119 531.938 803.824 526.774 805.397 523.622L808.256 517.891L807.344 509.302C806.842 504.578 805.032 495.377 803.321 488.856L800.21 476.999L795.684 468.221L791.159 459.443L792.193 455.321L793.228 451.199L800.072 446.329L806.916 441.46L809.297 446.005L811.679 450.55H813.642H815.606L814.452 455.148L813.298 459.745L815.311 463.507L817.325 467.269L820.713 464.203L824.101 461.137L826.002 462.312L827.903 463.487L831.741 461.433L835.579 459.38L839.075 462.544C840.998 464.284 842.571 466.749 842.571 468.021C842.571 469.294 844.621 472.771 847.126 475.748L851.68 481.16L850.557 486.78L849.433 492.399L845.933 490.527L842.434 488.654L838.806 489.805L835.178 490.957L832.361 495.256L829.544 499.556L831.497 503.206C832.572 505.214 833.451 507.753 833.451 508.848V510.839L828.435 508.043C825.676 506.506 821.243 503.513 818.584 501.392L813.75 497.536L811.58 498.877L809.41 500.218L810.545 506.265L811.679 512.312L809.548 520.777L807.416 529.241L811.057 534.165C813.059 536.873 815.313 541.125 816.066 543.614L817.435 548.139L824.987 554.901L832.539 561.664L829.57 561.742L826.601 561.819L824.331 559.083C823.082 557.578 821.229 556.347 820.213 556.347H818.366L823.164 560.121L827.962 563.895L831.517 562.766L835.072 561.638L837.703 565.833C839.15 568.14 841.734 574.367 843.445 579.67L846.557 589.313L844.341 591.983C843.122 593.451 841.199 594.623 840.068 594.587ZM671.717 558.911L667.766 560.144L666.878 558.701C666.39 557.908 665.443 553.565 664.775 549.051L663.561 540.842L665.152 536.58L666.744 532.318L671.479 539.316C674.084 543.165 676.688 547.956 677.267 549.963L678.32 553.611L676.994 555.645C676.264 556.764 673.89 558.234 671.717 558.911ZM646.266 541.088C645.382 541.311 642.885 540.639 640.718 539.594L636.778 537.695L635.62 531.521C634.983 528.125 631.308 518.573 627.453 510.294C623.598 502.014 617.097 487.852 613.005 478.823C608.914 469.794 604.667 458.849 603.567 454.501L601.569 446.596L602.668 441.594L603.766 436.591L601.856 431.566L599.945 426.54L597.676 427.302L595.407 428.063L595.359 430.642C595.333 432.06 594.669 434.247 593.884 435.501L592.456 437.781H587.921H583.385L578.544 432.94L573.702 428.099L577.867 426.558L582.032 425.017L581.234 422.735L580.436 420.452L577.255 421.029L574.073 421.606L570.61 418.472L567.147 415.338L569.285 412.762L571.424 410.185L575.635 411.242L579.847 412.3L583.631 408.515L587.416 404.731L580.037 397.571L572.659 390.41L574.726 385.875L576.792 381.34L582.471 379.466L588.15 377.592L596.833 365.619L605.515 353.647L604.481 351.974L603.447 350.3L605.386 346.677L607.325 343.054L601.744 340.168L596.163 337.282L594.404 332.656L592.645 328.03L593.713 326.303L594.78 324.576L600.71 325.688L606.641 326.801L612.148 322.167L617.655 317.533L624.135 319.322L630.614 321.111L631.483 323.375C631.961 324.62 632.105 329.095 631.805 333.319C631.504 337.543 630.713 341.88 630.048 342.956L628.839 344.913L631.534 349.027L634.229 353.141L641.784 356.547L649.339 359.954L647.454 361.839L645.57 363.723V367.888V372.053L655.053 376.858C660.268 379.501 671.555 383.904 680.134 386.642C688.713 389.381 697.874 392.144 700.493 392.783L705.253 393.944L708.39 390.477L711.528 387.01L709.494 383.21L707.461 379.41H710.306H713.151L714.898 384.003L716.644 388.596L721.641 390.496L726.638 392.396L730.794 390.503L734.95 388.609V385.834V383.059H737.725H740.501L742.522 378.622L744.544 374.185L749.659 372.066L754.774 369.947L760.241 371.148L765.708 372.349L767.881 374.967C769.076 376.408 771.192 377.586 772.583 377.586H775.111L772.866 381.181L770.621 384.776L765.531 386.884L760.441 388.993L759.449 393.778C758.903 396.41 757.741 401.436 756.866 404.948C755.992 408.459 754.106 414.487 752.677 418.344L750.078 425.356L746.02 420.197L741.961 415.038L742.939 410.152L743.916 405.266L741.652 403.387L739.388 401.508L736.713 403.2C735.242 404.13 733.5 404.904 732.843 404.92C732.185 404.935 728.155 402.03 723.887 398.464L716.126 391.98L713.608 394.499L711.089 397.018L715.652 405.052L720.216 413.086L719.293 416.769L718.371 420.452L721.289 424.101L724.207 427.749L722.142 423.502L720.077 419.255L721.159 416.436L722.241 413.616L717.603 405.317L712.964 397.019L714.56 395.423L716.155 393.828L724.007 400.388L731.859 406.948L734.773 405.813C736.375 405.188 738.507 404.533 739.51 404.356L741.335 404.036L740.794 409.724L740.254 415.411L745.064 421.129L749.875 426.847L751.533 425.822L753.191 424.797V427.518V430.239L749.405 431.441C747.323 432.101 746.022 433.044 746.513 433.535C747.004 434.027 749.171 433.484 751.328 432.33L755.249 430.231L754.105 425.019L752.96 419.807L755.842 414.233L758.724 408.659L759.872 400.287L761.02 391.914L765.77 388.972C768.382 387.354 771.785 384.5 773.331 382.631L776.142 379.232L779.327 380.455L782.512 381.677L785.149 386.778L787.788 391.88L784.929 398.721L782.071 405.562L783.937 409.657L785.802 413.752L789.292 414.859L792.782 415.967L797.725 425.05L802.669 434.133H805.291C806.734 434.133 807.901 434.749 807.886 435.501C807.87 436.254 807.255 437.733 806.518 438.79C805.781 439.846 802.089 443.03 798.313 445.865L791.448 451.02L790.392 455.231L789.334 459.443L793.86 468.221L798.386 476.999L801.496 488.856C803.208 495.377 804.999 504.406 805.477 508.921L806.347 517.129L804.416 521.689L802.486 526.25L803.566 517.699L804.646 509.149L799.976 499.458C797.407 494.129 794.365 485.925 793.216 481.227L791.126 472.687L788.279 471.594L785.431 470.501L780.612 475.118C777.961 477.658 775.28 479.735 774.655 479.735C774.029 479.735 772.199 478.418 770.588 476.807L767.66 473.879L768.72 470.54L769.779 467.202L764.329 456.406L758.88 445.61L753.517 443.389L748.155 441.167L744.874 433.891L741.593 426.615L738.271 424.838L734.95 423.06L731.533 424.889C729.654 425.895 724.113 427.598 719.221 428.673L710.325 430.628L708.238 433.377L706.151 436.127L706.98 439.3L707.81 442.472L701.282 445.585L694.755 448.698L692.687 453.237L690.618 457.776L687.121 458.886L683.624 459.996L680.526 465.09L677.429 470.183L669.252 476.467L661.075 482.751L661.481 487.172C661.705 489.603 662 494.054 662.137 497.064C662.275 500.074 661.628 507.66 660.699 513.922L659.012 525.309L653.443 532.995C650.381 537.223 647.151 540.864 646.266 541.088ZM858.005 535.249C855.536 536.867 853.405 537.966 853.269 537.692C853.133 537.418 852.876 533.712 852.699 529.456L852.377 521.718L856.139 520.552C858.208 519.911 862.095 517.841 864.777 515.953L869.654 512.519L870.781 507.389L871.907 502.258L869.784 496.925C868.617 493.992 867.557 489.532 867.429 487.013L867.197 482.435L855.62 467.471L844.044 452.508L840.698 451.446L837.353 450.385L836.155 444.933L834.958 439.482L830.837 436.782L826.717 434.082L824.796 429.866L822.875 425.65L832.964 422.543L843.053 419.436L847.373 422.267C849.748 423.823 851.692 425.916 851.692 426.918V428.739L856.117 430.755L860.542 432.772L855.404 437.095L850.266 441.419L849.087 446.115L847.908 450.812L851.73 456.996L855.552 463.18L862.827 468.942L870.103 474.705L875.24 484.972L880.377 495.24L881.665 502.311L882.953 509.381L880.872 514.405L878.791 519.429L871.667 522.642L864.542 525.855L863.518 529.081L862.494 532.307L858.005 535.249ZM843.902 525.325C843.672 525.318 841.492 522.388 839.057 518.814L834.631 512.315L834.318 508.338C834.145 506.15 833.406 502.987 832.675 501.309L831.345 498.258L835.303 494.3L839.261 490.343L843.196 491.496C845.361 492.13 848.773 493.092 850.78 493.635C852.786 494.177 855.249 494.615 856.252 494.607C857.255 494.599 859.909 494.03 862.148 493.344L866.22 492.095L868.207 497.316L870.194 502.536L868.695 507.75L867.197 512.964L855.758 519.151C849.467 522.553 844.132 525.332 843.902 525.325ZM397.11 504.179L390.342 505.411L386.807 498.482L383.273 491.554L381.971 481.138L380.67 470.722L385.376 468.578L390.082 466.434L401.524 469.229L412.965 472.024L417.1 467.563L421.234 463.101L428.973 459.747C433.229 457.902 439.174 455.884 442.184 455.264L447.656 454.136L452.217 462.831L456.777 471.527L449.26 478.942L441.742 486.356L432.843 489.697C427.948 491.535 419.428 495.268 413.911 497.993L403.878 502.948L397.11 504.179ZM861.003 491.874L855.722 493.867L853.46 492.469L851.198 491.071L852.421 486.199L853.644 481.326L849.02 475.831C846.476 472.808 844.396 469.31 844.396 468.057V465.779L840.007 461.656L835.619 457.534L831.761 459.598L827.903 461.663L826.002 460.488L824.101 459.313L820.793 462.307L817.485 465.3L816.349 462.34L815.213 459.38L816.277 455.142L817.341 450.903L814.718 449.358C813.275 448.509 811.157 446.026 810.011 443.842L807.927 439.87L809.057 436.925L810.187 433.98L814.067 434.512L817.946 435.045L817.421 430.029L816.896 425.013H818.742H820.589L823.391 430.431L826.192 435.849L829.674 437.712L833.154 439.575L834.364 445.082L835.574 450.59L839.942 452.879L844.31 455.167L855.297 469.497L866.285 483.827V486.853V489.88L861.003 491.874ZM384.497 467.435L379.375 470.375L374.754 464.883C372.212 461.862 370.133 458.633 370.133 457.708C370.133 456.783 366.841 452.634 362.818 448.489L355.503 440.951L352.54 430.702L349.577 420.452L345.17 414.98C342.746 411.97 336.948 404.644 332.285 398.699L323.808 387.89L320.748 378.634L317.688 369.378L318.535 367.921L319.383 366.465L321.556 368.268L323.729 370.072L329.312 366.537L334.895 363.003L337.111 355.605L339.327 348.208L343.313 346.734L347.298 345.259L352.485 346.747C355.337 347.565 361.156 350.277 365.415 352.773C369.675 355.269 374.27 358.65 375.628 360.286C376.986 361.922 381.224 364.855 385.045 366.805L391.994 370.35L397.024 370.162L402.054 369.973L408.922 372.551L415.79 375.129L420.362 381.326L424.934 387.523L426.811 394.491L428.687 401.46L433.007 403.102L437.327 404.745L439.756 409.794L442.184 414.844L448.382 419.016L454.58 423.189H458.785C461.097 423.189 465.064 424.134 467.6 425.289L472.211 427.39L473.252 430.671L474.294 433.951L471.334 439.674L468.374 445.397L460.185 449.02L451.995 452.643L444.744 453.364L437.492 454.085L429.385 457.672L421.277 461.258L416.868 465.667L412.459 470.076L401.039 467.286L389.619 464.496L384.497 467.435ZM463.63 469.41L457.714 470.519L453.926 463.094C451.842 459.01 450.4 455.433 450.721 455.145C451.042 454.857 455.516 452.825 460.663 450.631L470.021 446.64L473.155 439.69L476.289 432.741L474.221 428.877C473.084 426.751 471.34 425.013 470.346 425.013H468.54L471.551 419.084C473.207 415.824 475.362 412.152 476.341 410.924L478.121 408.692L483.866 411.662C487.025 413.295 492.688 417.105 496.451 420.127C500.213 423.15 503.291 426.412 503.291 427.377C503.291 428.342 500.623 432.225 497.363 436.007C494.102 439.79 489.103 446.676 486.254 451.309L481.074 459.735L475.31 464.018L469.545 468.301L463.63 469.41ZM878.056 459.091L876.18 459.716L873.969 457.504C872.752 456.288 871.757 454.254 871.757 452.985V450.678L875.285 448.79C877.226 447.751 880.585 446.902 882.749 446.902H886.685L883.309 452.684C881.451 455.864 879.088 458.747 878.056 459.091ZM883.163 436.532L879.064 441.696L877.339 437.159L875.614 432.621L872.118 431.512L868.623 430.402L865.772 431.496L862.922 432.59L858.675 430.336C856.339 429.096 853.36 426.577 852.054 424.737C850.749 422.898 848.077 420.534 846.117 419.485L842.553 417.578L833.898 420.522C829.137 422.142 823.19 423.647 820.682 423.867L816.122 424.268L816.418 428.856L816.715 433.443L810.244 432.934C806.685 432.653 803.619 432.193 803.432 431.911C803.244 431.628 800.89 427.552 798.2 422.854L793.309 414.31L789.76 413.184L786.211 412.057L785.126 408.636L784.04 405.215L786.826 398.548L789.612 391.88L786.777 386.397L783.942 380.915L776.319 377.289C772.126 375.295 766.644 372.506 764.136 371.092C761.628 369.677 758.098 368.508 756.293 368.493C754.487 368.478 750.646 369.688 747.757 371.182L742.505 373.898L741.403 377.369L740.302 380.841L737.049 381.691L733.798 382.541L729.612 379.152L725.426 375.762H721.922H718.419L717.351 378.545L716.283 381.328L713.783 379.253L711.284 377.178L708.393 378.287L705.503 379.396L699.268 374.641L693.033 369.885L690.083 371.017L687.133 372.15L680.44 370.347L673.747 368.545L667.513 363.945L661.278 359.345H656.099H650.921L642.089 354.87L633.257 350.394L632.111 347.409L630.965 344.424L631.996 342.755C632.563 341.838 633.332 337.343 633.705 332.767L634.383 324.446L630.856 320.919L627.329 317.391L623.681 317.118C621.674 316.967 619.007 316.762 617.753 316.662C616.498 316.561 610.625 313.401 604.701 309.639C598.777 305.877 593.441 302.798 592.844 302.797C592.248 302.797 591.636 300.668 591.486 298.066L591.212 293.336L585.162 288.286L579.113 283.236L585.034 280.174L590.954 277.112L592.656 278.164L594.359 279.216L603.091 274.771L611.824 270.326L615.719 266.041C617.861 263.685 620.121 260.074 620.742 258.017L621.871 254.277L617.304 248.086C614.792 244.681 612.736 241.665 612.736 241.384C612.736 241.103 615.153 239.624 618.106 238.097L623.476 235.32L625.936 230.297L628.396 225.275L631.891 225.592C633.813 225.766 636.909 225.093 638.771 224.097L642.156 222.285L641.058 217.285L639.959 212.285L643.447 209.128L646.935 205.972L652.61 210.747L658.285 215.522L664.605 217.267L670.925 219.012L676.905 228.24L682.884 237.468L688.073 240.152L693.262 242.835L698.444 241.697L703.626 240.559L712.448 245.059L721.27 249.56L726.742 255.345L732.214 261.129L741.478 259.983L750.742 258.836L770.282 263.732L789.821 268.628L796.587 265.713L803.354 262.798L812.474 261.584L821.594 260.371L826.446 257.91C829.114 256.557 831.669 254.406 832.124 253.131L832.95 250.812L830.471 245.899L827.992 240.987L829.826 239.853L831.66 238.72L835.188 239.84L838.716 240.96L846.572 237.016C850.893 234.846 856.095 231.549 858.132 229.687L861.836 226.303L866.341 226.701L870.845 227.099L871.582 225.275L872.319 223.451L866.638 220.133L860.958 216.816L852.69 216.263L844.421 215.71L841.672 213.429L838.923 211.148V208.649V206.151L845.743 202.939L852.563 199.728L852.646 192.437L852.73 185.145L849.412 180.216L846.095 175.287L853.9 173.185L861.704 171.083L871.747 173.268L881.789 175.453L891.822 185.892C897.34 191.633 904.745 198.488 908.278 201.125L914.702 205.92L923.743 207.946L932.784 209.972L938.296 214.169C941.328 216.477 945.564 218.921 947.709 219.599L951.61 220.832L957.76 217.203L963.91 213.574L966.406 215.116L968.901 216.659L967.598 218.767L966.295 220.875L969.312 225.479L972.329 230.084L965.974 236.077L959.62 242.07L963.102 247.353C965.018 250.259 966.591 253.662 966.597 254.916L966.609 257.197H963.733H960.857L955.465 262.588L950.073 267.98L947.782 267.101L945.491 266.222L940.185 273.277L934.878 280.332L928.014 284.282L921.15 288.233L919.254 284.691C918.212 282.743 917.359 279.893 917.359 278.358V275.566L913.952 273.742L910.545 271.919L904.283 278.694C900.839 282.421 896.427 286.377 894.478 287.485L890.935 289.5L893.378 292.443C894.721 294.062 899.359 297.364 903.685 299.782L911.55 304.178L914.202 301.526L916.854 298.874L924.859 301.047L932.864 303.219L928.403 306.201C925.949 307.841 922.495 310.414 920.728 311.919L917.515 314.655L916.339 319.626L915.163 324.596L919.625 326.629L924.087 328.663L927.916 336.543L931.745 344.424L937.263 347.684L942.782 350.944L943.825 353.663L944.868 356.381L942.02 357.976L939.171 359.57L940.229 361.282L941.287 362.994H944.885H948.483L949.369 365.302L950.254 367.61L945.108 385.942L939.962 404.273L933.902 411.814L927.842 419.355L919.967 422.038L912.092 424.721L909.942 422.131C908.759 420.706 906.825 419.54 905.644 419.54C904.463 419.54 902.494 420.543 901.269 421.768L899.041 423.995L895.184 424.048L891.327 424.101L889.294 427.734C888.176 429.733 885.417 433.692 883.163 436.532ZM894.988 433.791L891.811 434.403L890.662 431.409L889.513 428.416L891.457 426.472L893.401 424.528L896.394 425.677L899.388 426.826L898.776 430.002L898.164 433.179L894.988 433.791ZM905.932 430.143L902.755 430.755L901.607 427.761L900.458 424.767L902.401 422.824L904.345 420.88L907.339 422.029L910.332 423.178L909.721 426.354L909.109 429.531L905.932 430.143ZM960.646 419.219L958.401 426.751L956.394 425.426C955.29 424.697 953.392 422.212 952.176 419.904L949.965 415.707L953.288 410.018C955.115 406.889 957.531 404.022 958.656 403.647L960.702 402.965L961.796 407.326L962.891 411.687L960.646 419.219ZM467.265 422.979C466.513 422.863 462.766 422.163 458.939 421.423L451.98 420.076L447.197 416.505C444.566 414.541 442.062 411.878 441.632 410.588L440.85 408.242L444.901 410.41L448.952 412.578L455.046 411.435L461.14 410.292L468.535 401.891L475.93 393.49L476.078 395.114C476.159 396.008 476.403 399.202 476.619 402.212L477.011 407.684L472.822 413.867C470.518 417.267 468.633 420.756 468.633 421.619C468.633 422.482 468.018 423.094 467.265 422.979ZM565.217 414.068C564.408 414.068 562.457 412.778 560.88 411.202C559.303 409.625 558.014 407.594 558.014 406.688V405.041L552.289 402.081L546.563 399.12L541.963 401.216L537.362 403.313L527.743 402.111L518.124 400.909L517.04 398.085L515.956 395.26L519.716 391.259L523.475 387.257L521.785 382.878C520.855 380.469 517.956 376.508 515.341 374.076C512.727 371.644 510.587 369.145 510.587 368.523V367.393L522.9 367.379L535.213 367.364L540.158 364.104L545.103 360.843L546.215 357.338L547.328 353.833L552.616 351.099C555.524 349.595 558.889 348.578 560.094 348.839L562.285 349.313L565.722 340.193L569.158 331.072L572.715 328.322L576.271 325.572L574.094 319.804L571.917 314.036L574.151 311.344L576.385 308.653L582.833 307.443C586.38 306.777 590.257 305.859 591.448 305.402L593.614 304.571L604.359 311.292L615.104 318.012L610.816 321.484L606.529 324.956L600.765 323.875L595.001 322.793L592.925 325.294L590.849 327.796L592.79 333.366L594.732 338.936L600.042 341.135L605.351 343.334L603.487 346.817L601.623 350.3L602.67 351.994L603.716 353.687L595.914 364.625L588.111 375.563L582.151 377.639L576.191 379.714L573.456 385.004L570.721 390.293L577.983 397.555L585.245 404.817L582.442 407.62L579.639 410.423L575.531 409.392L571.424 408.361L569.055 411.215C567.753 412.784 566.026 414.068 565.217 414.068ZM441.479 405.732L439.861 406.732L437.935 404.41L436.008 402.089L437.728 399.414L439.448 396.739L441.244 399.475C442.232 400.98 443.053 402.779 443.068 403.472C443.083 404.165 442.368 405.182 441.479 405.732ZM507.851 402.896C505.845 402.801 500.619 402.02 496.239 401.159L488.275 399.593L482.531 392.948L476.787 386.304L469.002 388.636L461.217 390.968L450.149 385.678L439.08 380.388L434.742 371.826L430.403 363.263L426.261 361.806C423.983 361.004 420.477 360.328 418.471 360.303L414.823 360.258L411.046 352.391L407.269 344.525L402.183 341.189C399.386 339.354 395.52 335.506 393.591 332.638L390.086 327.424L391.079 321.801L392.072 316.179L388.34 312.801C386.287 310.943 383.086 306.907 381.226 303.831C379.366 300.755 377.355 296.597 376.756 294.59L375.666 290.942L381.87 290.626L388.074 290.31L392.527 287.393L396.98 284.475L399.743 285.536L402.507 286.596L405.929 293.051L409.35 299.507L421.686 305.748L434.022 311.989L439.471 309.171C442.468 307.621 444.92 305.655 444.92 304.801V303.248L454.166 299.27L463.413 295.293L472.863 298.429C478.061 300.155 485.531 303.006 489.464 304.765L496.614 307.964L498.864 312.169L501.115 316.374L498.472 322.978L495.83 329.582L499.738 340.029L503.647 350.476L506.196 351.454L508.745 352.432L507.645 359.313L506.544 366.194L512.822 373.258C516.275 377.144 519.67 381.887 520.367 383.798L521.635 387.274L517.744 391.416L513.853 395.557L515.19 397.72L516.527 399.883L514.013 401.475C512.631 402.351 509.858 402.99 507.851 402.896ZM433.493 397.309L430.316 397.921L429.168 394.927L428.019 391.934L429.963 389.99L431.906 388.046L434.9 389.195L437.893 390.344L437.282 393.521L436.67 396.697L433.493 397.309ZM704.173 391.967C703.544 391.851 701.467 391.356 699.558 390.868C697.649 390.38 689.031 387.702 680.405 384.918C671.78 382.133 660.787 377.932 655.976 375.581L647.229 371.307L647.768 366.694L648.306 362.082L654.407 361.497L660.508 360.913L667.334 365.643C671.089 368.245 676.943 371.172 680.345 372.148L686.528 373.921L689.758 372.896L692.987 371.871L700.23 377.009C704.214 379.835 707.924 383.277 708.475 384.658L709.476 387.169L707.397 389.674C706.254 391.052 704.803 392.084 704.173 391.967ZM726.742 390.211C725.739 390.163 723.071 389.381 720.814 388.474L716.709 386.824L716.737 384.485C716.753 383.199 717.525 380.945 718.454 379.477L720.143 376.807L725.077 378.565L730.012 380.322L732.025 383.567L734.038 386.811L731.302 388.555C729.797 389.514 727.745 390.26 726.742 390.211ZM411.24 371.991C410.201 371.923 407.504 370.976 405.246 369.888C402.989 368.799 401.142 367.261 401.142 366.471C401.142 365.68 402.01 364.497 403.07 363.842L404.998 362.65L409.063 363.671L413.129 364.691V368.403V372.114L411.24 371.991ZM317.866 366.739L316.018 368.587L312.558 360.914L309.098 353.241L311.345 352.492L313.592 351.743L314.734 344.6L315.876 337.456H317.162H318.448L318.151 340.649C317.988 342.404 317.217 346.606 316.439 349.985L315.025 356.13L317.369 360.511L319.714 364.891L317.866 366.739ZM327.952 365.574L322.916 368.548L319.91 362.213L316.904 355.879L318.316 349.86C319.093 346.549 319.792 343.02 319.87 342.017C319.948 341.013 321.433 337.577 323.17 334.38L326.329 328.567L325.234 325.715L324.14 322.864H321.599H319.058V319.216V315.567L323.162 311.463L327.266 307.359L337.299 307.163C342.817 307.055 350.615 306.311 354.628 305.509L361.924 304.051L359.815 306.617L357.705 309.183L356.415 317.847L355.126 326.512H353.879C353.194 326.512 346.992 330.217 340.097 334.745L327.561 342.979L323.766 341.954L319.97 340.93L323.185 342.945L326.401 344.96L333.681 340.869L340.96 336.777L343.492 340.239L346.024 343.702L342.117 345.64L338.211 347.578L335.599 355.088L332.987 362.599L327.952 365.574ZM320.797 356.609C321.706 354.603 322.508 350.977 322.578 348.553C322.649 346.128 322.405 344.487 322.036 344.905C321.668 345.323 320.866 348.948 320.255 352.961L319.144 360.258L320.797 356.609ZM394.775 368.393C392.759 368.353 388.647 367.004 385.637 365.395C382.628 363.787 377.474 360.131 374.186 357.271C370.898 354.411 364.979 350.425 361.034 348.412C357.089 346.399 352.644 344.753 351.156 344.753H348.45L345.611 340.699C344.049 338.469 342.771 336.023 342.771 335.264C342.771 334.504 345.974 332.248 349.889 330.251L357.007 326.62L358.268 317.448L359.53 308.275L361.213 307.235L362.896 306.195L361.781 304.391L360.666 302.587L369.762 303.316L378.857 304.045L384.596 310.582L390.336 317.118L389.171 321.759L388.006 326.399L391.972 332.816L395.938 339.232L401.224 342.355L406.51 345.478L408.409 350.925C409.454 353.921 411.723 357.936 413.452 359.846L416.596 363.32L409.908 362.066L403.221 360.811L400.831 364.639L398.44 368.466L394.775 368.393ZM521.812 365.684L508.407 365.952L509.526 358.954L510.645 351.957L507.948 350.922L505.251 349.887L501.487 339.828L497.724 329.77L499.979 323.533L502.234 317.296L504.692 318.239L507.15 319.182L513.982 315.697L520.813 312.212L522.934 307.556L525.056 302.899L529.482 301.789L533.908 300.678L539.667 303.656L545.427 306.635L549.404 305.373L553.38 304.111L558.353 298.787L563.326 293.464L567.054 295.459L570.782 297.455V300.019C570.782 301.429 571.475 303.011 572.321 303.535L573.861 304.486L580.749 302.584L587.636 300.682L589.417 302.463L591.197 304.243L583.888 305.478L576.579 306.713L573.315 310.319L570.051 313.926L572.201 319.62L574.35 325.313L570.888 327.737L567.427 330.162L564.393 339.296L561.359 348.429L559.74 347.428L558.121 346.428L552.516 349.326L546.911 352.225L545.036 356.339L543.161 360.454L539.189 362.935L535.217 365.416L521.812 365.684ZM1010.19 352.049H1008.56V349.453V346.857L1004.14 341.594L999.707 336.332L1001.17 333.966L1002.63 331.599L1007.25 334.624L1011.86 337.648L1012.95 341.968L1014.03 346.287L1012.93 349.168C1012.32 350.753 1011.09 352.049 1010.19 352.049ZM1021.16 339.28C1020.47 339.28 1019.37 337.91 1018.73 336.234L1017.56 333.188L1019.9 331.702C1021.19 330.885 1023.27 330.203 1024.52 330.188L1026.8 330.16V332.531C1026.8 333.836 1025.82 335.888 1024.62 337.092C1023.41 338.295 1021.86 339.28 1021.16 339.28ZM322.144 333.113L319.595 337.977L318.359 335.977L317.122 333.976L318.288 329.332L319.454 324.688H320.972C321.807 324.688 322.986 325.489 323.592 326.469L324.692 328.249L322.144 333.113ZM1040.26 328.664L1038.6 334.464L1035.4 329.576L1032.19 324.688L1027.22 324.698C1024.48 324.704 1019.16 325.564 1015.4 326.609L1008.55 328.511L1005.37 326.655L1002.18 324.799L1004.32 324.743C1005.5 324.713 1008.93 322.607 1011.96 320.064L1017.45 315.439L1021.79 316.529L1026.14 317.619L1035.99 310.211L1045.85 302.803L1048.23 298.268L1050.61 293.732L1045.86 284.363L1041.11 274.994L1042.91 273.191L1044.72 271.389L1050.14 274.595L1055.57 277.801L1058.47 283.883L1061.37 289.966L1060.28 292.803L1059.19 295.64L1062.27 303.685L1065.34 311.73L1063.29 315.56L1061.24 319.39L1056.67 321.127C1054.16 322.082 1049.81 322.864 1047.01 322.864H1041.92L1040.26 328.664ZM980.031 322.576L972.476 326.385L968.437 316.872C966.215 311.64 962.815 305.635 960.882 303.529L957.368 299.698L959.708 297.883C960.996 296.885 963.557 295.529 965.401 294.87L968.752 293.671L975.794 298.691L982.836 303.711L985.953 310.57C987.667 314.342 988.736 317.73 988.328 318.098C987.92 318.466 984.187 320.481 980.031 322.576ZM297.733 324.56C296.538 324.63 294.996 323.775 294.307 322.66L293.053 320.632L295.567 319.039C296.95 318.164 299.04 317.435 300.212 317.419C301.384 317.404 303.846 316.827 305.684 316.138L309.026 314.884L306.522 317.962L304.019 321.04L305.61 321.168C306.485 321.238 305.56 322.001 303.553 322.864C301.547 323.726 298.928 324.489 297.733 324.56ZM244.619 322.781L239.71 322.699L234.238 320.193L228.766 317.688L236.062 317.564C240.075 317.497 245.196 317.934 247.442 318.536L251.526 319.63L250.527 321.247L249.527 322.864L244.619 322.781ZM163.528 320.697L160.351 321.309L159.203 318.316L158.054 315.322L159.998 313.378L161.941 311.435L164.935 312.583L167.928 313.732L167.317 316.909L166.705 320.086L163.528 320.697ZM506.421 317.363C506.204 317.348 505.124 316.733 504.02 315.995C502.916 315.258 501.058 312.842 499.892 310.626L497.77 306.596L489.986 303.153C485.704 301.259 477.953 298.298 472.76 296.573L463.319 293.438L455.04 297.1L446.76 300.762L445.601 295.852C444.963 293.152 443.01 289.3 441.26 287.294C439.511 285.287 437.061 281.674 435.815 279.265L433.551 274.884L436.632 276.066L439.712 277.248L443.259 275.35L446.807 273.452L442.027 267.185L437.247 260.918L433.787 262.77L430.327 264.621V262.77V260.919L423.092 257.228L415.857 253.536L413.907 249.894L411.958 246.252L413.899 242.625L415.84 238.999L420.244 237.893L424.648 236.788L426.576 237.979L428.503 239.171L430.36 238.023L432.218 236.875L428.584 231.772L424.95 226.669L419.362 224.354L413.773 222.039L406.718 224.811L399.662 227.583L393.782 222.212C390.548 219.259 385.956 215.567 383.578 214.008L379.253 211.175L379.281 207.28C379.296 205.138 379.978 202.332 380.795 201.044L382.281 198.702L385.302 199.861L388.323 201.021L390.094 196.362L391.865 191.704L397.594 188.741L403.323 185.779L412.721 187.987C417.89 189.201 424.266 191.28 426.891 192.607L431.663 195.018L438.026 193.261L444.39 191.504L452.098 194.224L459.807 196.943L465.497 194.001L471.188 191.058L466.518 187.041L461.848 183.024L464.337 179.62L466.826 176.216L465.802 172.989L464.778 169.762L469.898 168.691C472.714 168.102 482.438 165.612 491.508 163.158C500.578 160.704 509.481 158.696 511.292 158.696H514.584L519.488 162.187L524.391 165.679L531.626 166.988C535.605 167.707 540.29 169.034 542.036 169.936L545.212 171.575L550.345 168.921L555.478 166.266L561.306 169.957C564.511 171.986 567.134 174.432 567.134 175.393V177.139L576.03 180.836L584.926 184.533L586.936 188.945L588.947 193.357L594.913 193.324C598.195 193.305 604.163 193.559 608.176 193.887L615.472 194.485L625.117 199.457L634.762 204.429L636.534 203.334L638.306 202.238L642.094 203.441L645.882 204.643L641.983 208.793L638.085 212.943L639.227 217.493L640.369 222.044L637.333 223.21L634.296 224.375L632.522 223.278L630.747 222.181L627.214 225.379L623.681 228.577V230.983V233.39L618.324 236.16C615.378 237.683 612.532 239.634 612 240.494L611.033 242.059L615.54 248.168L620.047 254.277L618.912 258.017C618.288 260.074 616.438 263.282 614.801 265.146C613.164 267.01 607.894 270.528 603.091 272.964L594.359 277.392L592.641 276.33L590.923 275.269L586.781 277.405C584.503 278.58 580.824 281.193 578.606 283.213L574.573 286.884L569.164 284.643L563.755 282.403L559.744 283.675L555.734 284.948L554.258 282.56L552.782 280.172L553.685 278.712L554.587 277.252L558.124 279.145L561.662 281.038L565.004 279.249C566.842 278.266 569.358 276.242 570.594 274.752L572.842 272.044L568.889 269.928L564.937 267.813L561.787 268.637L558.638 269.46L555.781 267.372L552.925 265.283L555.375 261.931L557.826 258.579L564.253 259.785L570.681 260.991L575.987 258.247L581.293 255.503L587.425 257.261L593.557 259.02L599.277 257.947L604.997 256.874L610.691 259.818C613.822 261.437 616.384 262.352 616.384 261.85C616.384 261.349 613.822 259.613 610.691 257.994L604.997 255.05L599.277 256.123L593.557 257.196L587.425 255.437L581.293 253.679L576.075 256.377L570.857 259.076L563.697 257.931L556.538 256.786L554.563 260.476L552.588 264.167L546.384 268.001L540.181 271.834L532.224 268.401L524.268 264.967L518.254 257.434L512.24 249.9H504.842H497.444L481.76 242.55L466.077 235.201L456.442 237.201C451.143 238.301 446.418 239.832 445.941 240.604L445.074 242.007L448.587 253.612C450.52 259.994 451.878 265.44 451.605 265.712C451.332 265.985 448.08 264.053 444.377 261.419L437.646 256.629L433.53 258.747L429.415 260.864L433.699 259.762L437.984 258.661L445.854 264.313C450.183 267.422 454.884 269.965 456.301 269.965H458.877L463.161 265.405L467.445 260.845H472.349H477.252L484.138 266.317L491.024 271.789H494.483H497.942L501.564 277.928L505.186 284.067L520.199 290.842L535.213 297.618L529.285 300.12L523.358 302.622L521.356 307.017L519.353 311.413L513.084 314.402C509.636 316.046 506.638 317.379 506.421 317.363ZM298.081 311.796L294.433 311.803L290.892 309.125L287.351 306.447H283.247H279.143L277.95 308.378L276.757 310.309L271.062 309.058C267.93 308.37 263.962 306.93 262.245 305.857C260.528 304.785 258.243 301.978 257.169 299.619C256.094 297.26 255.215 293.774 255.215 291.872V288.413L251.111 285.522L247.007 282.631L249.743 280.84L252.479 279.049L256.622 280.024L260.764 280.998L265.573 276.189L270.383 271.38L276.935 271.032L283.488 270.685L288.537 267.358L293.585 264.031L302.938 265.272L312.291 266.513L319.779 270.4L327.266 274.288L337.12 274.341L346.973 274.395L349.558 270.502L352.143 266.608L358.301 269.181C361.688 270.596 366.47 273.764 368.927 276.221L373.394 280.689L372.45 281.632L371.506 282.576L372.897 285.847C373.661 287.646 374.447 290.349 374.641 291.854C374.836 293.359 375.614 296.488 376.371 298.807L377.746 303.023L371.494 301.851L365.241 300.678L357.198 302.884L349.156 305.09L337.58 305.351L326.004 305.612L323.659 308.819L321.314 312.026L320.243 309.237L319.173 306.447L315.011 306.512L310.85 306.576L306.289 309.183C303.781 310.617 300.088 311.793 298.081 311.796ZM25.3798 308.883L22.6437 310.051L16.7154 306.246C13.4548 304.153 10.7871 302.07 10.7871 301.617C10.7871 301.164 11.9744 298.497 13.4255 295.691L16.064 290.589L15.0842 286.842L14.1044 283.096L17.8001 274.741L21.4957 266.386L20.2456 265.763C19.558 265.42 15.5069 264.041 11.2431 262.7L3.49074 260.261V257.947C3.49074 256.674 4.87168 254.252 6.55951 252.564L9.62829 249.495L17.9601 250.85C22.5425 251.594 32.5125 252.46 40.1156 252.773L53.9393 253.341L59.2685 255.724C62.1996 257.035 65.9165 259.694 67.5283 261.632L70.4588 265.157L77.1249 261.994L83.791 258.83L85.5949 259.945C86.5871 260.558 87.3988 261.754 87.3988 262.602C87.3988 263.451 82.9088 266.679 77.4211 269.776L67.4434 275.407L64.6525 280.804C63.1175 283.772 61.8616 287.798 61.8616 289.751V293.3L55.4438 298.935L49.026 304.57L44.9553 305.42C42.7164 305.887 38.0116 306.595 34.5002 306.992C30.9889 307.39 26.8847 308.241 25.3798 308.883ZM223.29 308.271C222.934 308.271 221.347 306.976 219.764 305.393C218.18 303.81 216.071 300.993 215.077 299.135L213.268 295.755L217.369 295.173L221.469 294.59L221.34 292.766L221.21 290.942L217.691 290.384C215.756 290.077 211.986 288.98 209.313 287.947L204.453 286.069L202.627 281.209C201.622 278.536 200.374 273.848 199.854 270.791L198.907 265.233L200.513 262.636L202.118 260.038L203.467 261.388C204.209 262.13 205.861 265.774 207.137 269.486L209.457 276.234L207.255 279.117C206.043 280.703 206.823 280.156 208.987 277.902L212.922 273.804L219.491 271.059L226.059 268.315L236.784 268.612L247.509 268.909L246.71 270.991L245.912 273.072L241.621 272.252L237.331 271.432L233.846 274.917L230.362 278.402L228.134 277.659L225.907 276.917L223.35 279.039L220.793 281.16L225.093 289.248L229.394 297.335L226.666 302.803C225.166 305.81 223.647 308.271 223.29 308.271ZM169.811 303.083L168.571 306.103L160.551 301.997L152.532 297.892L156.718 296.797L160.905 295.702L166.106 296.742C168.966 297.314 171.249 298.295 171.179 298.923C171.108 299.55 170.493 301.422 169.811 303.083ZM545.821 304.567C545.003 304.537 542.691 303.574 540.685 302.428C538.678 301.281 536.093 299.029 534.941 297.422L532.845 294.499L519.144 288.478L505.443 282.457L503.245 277.151L501.047 271.845L494.846 270.133L488.645 268.42L483.059 263.72L477.474 259.021H472.46H467.445L463.161 263.581L458.877 268.141H455.439H452.001L452.944 266.615L453.887 265.09L450.33 253.391C448.373 246.956 446.766 241.545 446.758 241.365C446.75 241.185 451.094 240.135 456.41 239.032L466.077 237.025L481.76 244.375L497.444 251.724H504.775H512.105L518.04 259.218L523.976 266.712L532.078 270.185L540.181 273.659L546.062 270.024L551.943 266.389L555.29 268.837L558.638 271.284L561.825 270.451L565.013 269.617L568.179 271.389L571.344 273.161L566.601 276.269L561.858 279.377L558.568 277.535L555.278 275.694L556.19 274.198L557.102 272.701L553.121 272.135L549.14 271.568L546.979 275.783C545.791 278.101 543.182 281.3 541.183 282.893L537.548 285.788L540.855 292.013L544.162 298.238L543.746 300.975L543.33 303.711L545.412 300.301L547.494 296.892L545.73 295.741C544.76 295.108 543.018 292.787 541.857 290.582L539.747 286.574L544.32 282C546.835 279.485 548.893 276.569 548.893 275.52V273.613H552.824H556.755L553.865 276.807L550.975 280L552.847 283.344L554.718 286.689L559.383 285.518L564.047 284.348L569.24 286.499L574.434 288.65L576.712 286.76L578.991 284.871L583.8 289.009C586.445 291.285 589.102 294.703 589.706 296.605L590.804 300.063L586.721 300.132C584.476 300.171 580.382 300.802 577.623 301.535L572.606 302.868V300.139V297.411L567.804 294.264L563.001 291.117L559.139 295.812C557.015 298.394 553.485 301.433 551.293 302.565C549.102 303.697 546.639 304.598 545.821 304.567ZM4.97699 302.799C3.15629 302.799 1.61425 302.594 1.5502 302.343C1.48616 302.092 1.11116 299.014 0.716885 295.502L0 289.118L2.86612 275.778L5.73223 262.439L8.7157 263.7C10.3566 264.394 13.4644 265.347 15.622 265.817L19.5449 266.673L15.9126 274.884L12.2803 283.096L13.2371 286.754L14.1938 290.413L11.2405 296.606L8.28733 302.799H4.97699ZM955.898 298.969C955.268 298.869 952.701 298.194 950.193 297.47L945.632 296.152L946.073 292.143L946.514 288.134L941.057 284.815L935.6 281.497L940.616 274.878L945.632 268.26L947.819 269.019L950.006 269.779L955.9 264.273L961.794 258.767L964.917 259.583L968.039 260.4L967.703 255.543L967.367 250.686L964.494 246.585L961.622 242.484L967.862 236.244L974.101 230.005L971.226 225.617L968.351 221.229L969.446 218.376L970.541 215.522L967.064 213.661L963.587 211.801L957.64 215.417L951.693 219.034L947.751 217.788C945.583 217.102 941.328 214.653 938.296 212.345L932.784 208.148L923.743 206.122L914.702 204.096L908.278 199.317C904.745 196.688 897.894 190.172 893.054 184.837L884.254 175.136L874.203 172.214L864.153 169.292L857.5 170.54C853.841 171.227 849.37 172.579 847.564 173.545L844.282 175.302L847.594 180.223L850.906 185.145L850.821 192.173L850.736 199.2L845.285 201.495L839.835 203.79L837.099 202.47C835.594 201.744 830.872 200.617 826.606 199.965L818.848 198.781L812.246 201.539L805.644 204.298H800.716C798.006 204.298 788.961 202.255 780.617 199.757L765.447 195.216L758.863 196.242L752.279 197.267L743.159 192.366C738.142 189.671 729.934 186.38 724.918 185.052L715.797 182.638L712.264 186.107L708.731 189.576L712.013 193.203L715.295 196.829L710.222 198.102L705.15 199.376L691.672 195.41L678.194 191.445L671.215 193.324L664.236 195.204L661.876 198.047C660.578 199.611 657.201 202.088 654.371 203.551L649.226 206.211L644.676 203.23L640.126 200.249L637.277 201.342L634.428 202.435L624.95 197.548L615.472 192.661L608.176 192.063C604.163 191.735 598.339 191.47 595.234 191.474L589.588 191.483L587.612 187.147L585.636 182.81L577.297 179.626L568.958 176.441V174.93C568.958 174.1 565.959 171.382 562.294 168.892L555.63 164.363L550.421 167.057L545.212 169.751L542.036 168.112C540.29 167.21 535.605 165.883 531.626 165.163L524.391 163.855L519.488 160.363L514.584 156.872H511.292C509.481 156.872 500.168 158.968 490.596 161.531C481.025 164.093 471.141 166.781 468.633 167.503L464.073 168.816L463.991 173.607L463.909 178.398L461.679 181.085L459.449 183.772L464.349 186.982L469.249 190.193L464.54 192.66L459.83 195.128L452.11 192.404L444.39 189.68L438.026 191.437L431.663 193.194L426.891 190.782C424.266 189.456 417.817 187.36 412.56 186.124L403 183.877L397.055 187.318L391.11 190.759L389.314 194.78L387.519 198.8L384.409 197.813L381.299 196.826L379.364 200.442C378.3 202.431 377.429 205.656 377.429 207.61V211.161L383.848 216.057C387.379 218.75 392.337 222.872 394.867 225.217L399.468 229.48L393.917 233.433C390.864 235.607 387.43 239.134 386.286 241.271L384.207 245.156L388.114 247.751L392.022 250.345V252.9V255.454L399.232 263.276L406.442 271.098L408.355 276.13L410.268 281.163L409.156 285.596C408.544 288.035 407.721 290.03 407.329 290.03C406.936 290.03 404.931 288.346 402.873 286.289L399.131 282.547L395.978 283.548L392.825 284.549L386.777 279.025L380.728 273.501L385.411 269.817L390.094 266.133L393.436 267.922L396.778 269.711L399.416 267.938L402.054 266.165L399.146 266.697L396.238 267.229L385.465 262.398C379.54 259.742 371.276 256.161 367.099 254.44L359.505 251.313L357.576 252.505L355.647 253.697L350.212 250.887C347.222 249.341 343.299 248.112 341.494 248.156L338.211 248.236L345.507 251.036C349.52 252.576 355.266 254.083 358.276 254.385C361.286 254.686 367.903 256.546 372.981 258.518C378.06 260.49 383.7 262.935 385.516 263.951L388.818 265.799L384.735 268.658L380.653 271.518L376.255 269.514L371.858 267.51L369.926 269.442L367.995 271.373L360.817 268.553L353.639 265.733L352.584 261.531L351.53 257.33L336.3 248.781L321.071 240.233L323.64 235.265L326.209 230.298L325.11 229.198L324.01 228.099L326.318 225.319L328.625 222.539H327.172H325.718L329.413 218.435C331.445 216.177 333.692 213.299 334.407 212.038L335.706 209.745L331.904 204.407L328.103 199.069L317.652 196.915C311.904 195.73 305.031 193.648 302.379 192.286C299.726 190.925 294.983 187.238 291.837 184.093L286.119 178.374L280.02 179.519L273.921 180.663L274.103 173.756L274.284 166.85L270.218 160.271L266.152 153.692L257.316 152.52L248.481 151.348L246.14 146.358L243.799 141.367L243.336 133.81L242.873 126.253L247.323 124.226L251.772 122.198L250.796 120.618C250.258 119.748 247.152 118.504 243.892 117.852L237.966 116.666L228.369 118.814L218.772 120.962L211.417 117.645L204.062 114.328L202.978 110.009L201.894 105.69L207.122 98.4049C209.997 94.3979 213.448 89.0269 214.792 86.4694L217.235 81.8193L214.539 78.7595L211.843 75.6997L210.583 69.7737L209.324 63.8476L205.414 61.1092L201.505 58.3708H209.563H217.622L222.33 53.8595L227.039 49.3481L232.463 50.8161L237.886 52.2841L237.372 55.9044L236.858 59.5247L240.506 62.8256L244.153 66.1264L242.458 69.293L240.764 72.4596L243.371 75.9037L245.978 79.3479L246.037 83.5426C246.068 85.8498 247.326 90.1184 248.831 93.0285C250.335 95.9385 252.787 99.0025 254.279 99.8374L256.991 101.355L252.911 107.135C250.667 110.313 247.189 113.72 245.182 114.704L241.534 116.495L243.901 116.618L246.269 116.742L250.92 111.725C253.478 108.966 256.347 105.261 257.296 103.49L259.02 100.271L256.138 99.1647L253.256 98.0587L250.587 92.8981C249.119 90.0597 247.919 86.0261 247.919 83.9345V80.1315L245.26 76.0739L242.601 72.0162L244.264 69.3259L245.927 66.6356L242.132 62.596L238.337 58.5565L239.439 55.6837L240.541 52.8109L244.686 51.1463L248.831 49.4816L245.746 49.366L242.662 49.2504L241.48 51.1631L240.297 53.0757L238.18 51.4146C237.015 50.5009 233.932 49.2462 231.329 48.6263L226.597 47.4992L222.209 52.2203L217.821 56.9415L206.518 55.9097L195.214 54.878L186.812 57.7408L178.41 60.6036L174.403 66.0493L170.395 71.495L165.409 74.0843L160.424 76.6735L157.439 82.5709L154.455 88.4683L149.743 92.3303L145.031 96.1924L147.221 105.681L149.412 115.169L147.356 119.147C146.226 121.336 144.065 124.543 142.555 126.275L139.81 129.424L138.339 128.515L136.869 127.606L130.831 131.288L124.793 134.969L121.144 134.935L117.496 134.901L113.054 131.487L108.612 128.072L108.206 122.863C107.983 119.998 107.239 116.248 106.552 114.531L105.302 111.408L110.279 106.796L115.255 102.184L121.574 100.439L127.893 98.6944L137.914 91.7925L147.935 84.8905L150.317 80.2951C151.627 77.7676 155.938 72.7949 159.898 69.2445C163.858 65.6942 167.443 61.7536 167.865 60.4877L168.632 58.186L181.37 53.5664C188.376 51.0256 197.543 47.8392 201.741 46.4855L209.375 44.0243L225.147 44.6361L240.92 45.2479L252.172 50.7568L263.423 56.2658L268.01 55.3636L272.597 54.4615L290.17 60.0907L307.743 65.7199L308.718 68.2592L309.692 70.7985L304.401 72.9902L299.11 75.1819L292.211 74.1884C288.417 73.6419 280.57 72.1805 274.773 70.9409L264.234 68.687L262.183 70.738L260.132 72.7889L265.107 75.0554L270.081 77.322L272.718 82.4212L275.355 87.5205L282.522 91.1765L289.688 94.8325L294.341 93.0636C296.899 92.0907 298.993 90.8902 298.993 90.3958C298.993 89.9014 296.736 88.2722 293.977 86.7755L288.961 84.0541L291.122 83.9811C292.311 83.9409 295.443 84.729 298.082 85.7324L302.88 87.5568L306.341 85.7046L309.802 83.8524L308.805 81.2555L307.809 78.6585L315.713 76.633C320.061 75.519 324.729 74.2307 326.088 73.7702L328.557 72.9328L327.631 70.6681C327.121 69.4225 326.102 66.9014 325.366 65.0658L324.028 61.7283L329.296 62.3297L334.563 62.9311L334.125 65.1567L333.687 67.3824L337.52 69.4335L341.352 71.4845L351.89 65.9607L362.428 60.4368L369.036 59.1971L375.645 57.9573L378.302 60.1629L380.96 62.3684L393.459 60.2602C400.333 59.1007 406.721 58.3838 407.654 58.667C408.587 58.9503 411.564 57.7026 414.269 55.8943L419.188 52.6065L433.422 55.6904L447.656 58.7744L451.41 61.1213L455.164 63.4682L458.251 61.7409C459.948 60.7909 461.337 59.2229 461.337 58.2565V56.4993L453.292 52.5907L445.247 48.6822L443.191 44.1695L441.135 39.6569L444.074 36.4093L447.013 33.1617L451.594 32.0119L456.175 30.8621L459.499 31.9172L462.823 32.9723L472.677 46.1276C478.097 53.363 483.15 60.3145 483.906 61.5754L485.281 63.868L481.388 69.3353L477.495 74.8027L480.196 75.8392L482.897 76.8757L488.32 74.0713L493.743 71.2668L494.913 66.6055L496.083 61.9442L494.161 58.3523L492.238 54.7604L486.874 51.9865L481.51 49.2126L479.632 45.7033C478.599 43.7731 477.754 41.2277 477.754 40.0469V37.8999L483.682 38.9827L489.61 40.0655L496.255 35.9935C499.91 33.7539 505.14 30.3255 507.877 28.3747L512.854 24.8279L521.337 24.6355L529.82 24.4432L532.149 23.0037L534.478 21.5643L532.305 18.9465C531.11 17.5067 530.512 15.9488 530.976 15.4847C531.441 15.0205 538.716 13.3326 547.144 11.7339L562.468 8.82704L570.317 10.0042L578.167 11.1813L585.226 5.59065L592.284 0H597.129H601.973L607.811 3.14128L613.648 6.28256L630.977 6.35197L648.306 6.42136L653.322 9.80479C656.081 11.6657 658.327 13.7094 658.312 14.3465C658.298 14.9835 654.088 17.8207 648.957 20.6514L639.629 25.798L641.437 27.6064L643.246 29.4149L654.174 26.5832L665.102 23.7514L674.15 26.4384L683.197 29.1253L689.334 27.3655L695.47 25.6056L706.156 28.3748L716.843 31.144L723.617 29.2629L730.39 27.3817L740.492 27.3715L750.594 27.3613L758.163 31.4655C762.326 33.7228 770.004 37.8995 775.224 40.747L784.715 45.9243L791.298 42.973L797.881 40.0217L807.591 41.8779L817.3 43.7342L822.769 40.9064L828.237 38.0787L826.15 35.5639L824.063 33.0491L830.354 31.8688L836.646 30.6885L848.273 32.771C854.668 33.9164 862.773 35.0597 866.285 35.3117L872.669 35.77L881.53 39.7584L890.391 43.7469L916.317 44.459L942.244 45.1711L948.498 48.5044L954.753 51.8377L978.466 52.0689L1002.18 52.3001L1009.21 55.3233L1016.25 58.3466L1018 57.2656L1019.75 56.1846L1016.43 52.478L1013.12 48.7714L1025.89 50.0399C1032.92 50.7376 1046.46 52.5917 1055.99 54.1603L1073.32 57.0122L1081.53 60.1889L1089.74 63.3657L1100.65 64.7007L1111.56 66.0357L1120.11 70.368L1128.66 74.7003L1134.15 72.7865L1139.64 70.8727L1143.87 73.0977C1146.2 74.3214 1150.78 77.647 1154.05 80.488L1160 85.6533L1155.52 86.7782L1151.04 87.9031L1144.1 85.6679C1140.28 84.4385 1136.17 82.6481 1134.96 81.6892L1132.76 79.9458L1131.19 80.9164L1129.62 81.8871L1121.71 79.1618L1113.8 76.4365L1111.1 77.4742L1108.39 78.5119L1111.64 82.0977L1114.88 85.6835L1108.69 85.2518L1102.5 84.8201L1101.59 86.3485L1100.68 87.8769L1117.1 94.2801C1126.13 97.8019 1133.9 101.058 1134.37 101.515C1134.85 101.973 1134.18 103 1132.89 103.797L1130.54 105.246L1126.33 104.442L1122.13 103.637L1116.42 106.588L1110.71 109.539V111.245C1110.71 112.184 1108.96 114.587 1106.81 116.586L1102.91 120.221L1097.69 117.523L1092.47 114.824L1087.46 117.351C1084.7 118.741 1079.98 120.469 1076.98 121.193C1073.97 121.916 1070.49 123.355 1069.24 124.392L1066.97 126.277L1070.11 131.58L1073.24 136.884L1081.16 140.72L1089.09 144.555L1090.79 149.345C1091.73 151.98 1093.72 156.307 1095.21 158.96L1097.92 163.785L1095.01 164.904L1092.09 166.023L1093.36 169.2C1094.06 170.947 1094.85 174.428 1095.12 176.937C1095.38 179.445 1096.19 182.859 1096.9 184.524L1098.21 187.552L1094.19 188.826L1090.18 190.101L1083.57 182.8C1079.94 178.784 1073.88 173.256 1070.11 170.514L1063.25 165.53L1055.09 154.673L1046.92 143.815L1049.63 138.577C1051.12 135.697 1052.37 131.452 1052.41 129.145C1052.44 126.838 1053.6 122.911 1054.98 120.42L1057.49 115.89L1055.59 112.211C1054.55 110.188 1052.47 107.123 1050.97 105.4L1048.23 102.266L1044.73 104.143L1041.22 106.019L1042.35 109.565L1043.47 113.111L1040.76 114.153L1038.04 115.195L1033.79 112.412L1029.54 109.63L1021.83 108.399L1014.12 107.168L1012.12 112.411L1010.12 117.654L1011.1 122.541L1012.07 127.428L1007.04 128.532L1002.01 129.636L994.997 126.704L987.98 123.773L983.223 125.125L978.466 126.478L963.564 126.626L948.663 126.774L944.134 131.028L939.606 135.283L937.484 143.797C936.317 148.48 934.178 154.139 932.732 156.372L930.101 160.432L937.621 164.268L945.141 168.105L950.859 168.215C954.004 168.276 958.231 167.755 960.253 167.058L963.928 165.791L972.71 172.633L981.492 179.475L985.001 186.353L988.51 193.231L992.091 195.148L995.671 197.064L997.31 203.873L998.949 210.682L998.677 221.627L998.405 232.571L994.824 242.402L991.243 252.232L987.381 254.763L983.519 257.293L978.594 255.421C975.885 254.391 973.394 253.548 973.059 253.548C972.724 253.548 970.695 256.916 968.55 261.032L964.649 268.515L966.573 270.833L968.496 273.151L967.453 275.871L966.409 278.591L961.949 280.623L957.489 282.656V284.367C957.489 285.308 959.746 287.762 962.505 289.82L967.521 293.563L964.553 293.62L961.584 293.678L959.313 296.414C958.064 297.919 956.527 299.069 955.898 298.969ZM178.716 292.388L174.526 296.414L175.5 290.942L176.475 285.47L172.178 279.809L167.881 274.148L162.504 271.921L157.127 269.693L157.959 266.51L158.792 263.326L155.781 260.827L152.77 258.328L149.606 260.304L146.442 262.28L142.655 259.282C140.572 257.633 137.578 253.716 136.002 250.577L133.136 244.87L130.176 243.734L127.215 242.598L124.286 244.237L121.356 245.877L117.146 243.119C114.831 241.601 112.936 239.692 112.936 238.876C112.936 238.06 114.226 236.102 115.802 234.526L118.669 231.659H122.856H127.042L136.492 227.732L145.941 223.805L148.044 225.908C149.201 227.065 151.5 228.011 153.152 228.011H156.157L158.269 232.115L160.382 236.219L159.411 232.349L158.441 228.479L166.183 226.514C170.441 225.434 174.274 224.898 174.7 225.324C175.126 225.75 174.392 227.404 173.068 228.999C171.744 230.595 168.285 233.128 165.38 234.63L160.1 237.361L157.682 235.354L155.264 233.347L147.621 237.331L139.978 241.315L138.976 243.925L137.974 246.535L140.906 249.467L143.838 252.398L148.437 249.937L153.036 247.476L161.923 256.745L170.811 266.014L182.003 271.664C188.159 274.771 193.196 277.778 193.196 278.345V279.375L187.768 278.183L182.34 276.991L180.541 278.103L178.741 279.216L180.824 283.788L182.907 288.361L178.716 292.388ZM383.775 288.957L378.265 290.136L376.023 287.894C374.79 286.661 373.781 284.442 373.781 282.963V280.274L378.002 283.784C380.324 285.714 379.024 284.249 375.113 280.526L368.003 273.759L369.176 271.862C369.82 270.819 371.445 269.965 372.785 269.965H375.222L383.728 278L392.235 286.035L390.76 286.906C389.949 287.385 386.806 288.308 383.775 288.957ZM128.581 286.988L125.984 287.984L123.99 282.263L121.995 276.541L124.587 273.949L127.179 271.358L129.178 272.593L131.177 273.829V279.91V285.992L128.581 286.988ZM82.9334 286.1L79.6823 286.73L80.4996 284.276L81.3168 281.822L84.5679 281.191L87.819 280.561L87.0017 283.016L86.1845 285.47L82.9334 286.1ZM255.581 273.328L247.843 275.066L248.49 270.236L249.136 265.405L252.067 264.836L254.999 264.267L259.724 267.363C262.323 269.066 264.195 270.714 263.884 271.024C263.573 271.335 259.837 272.372 255.581 273.328ZM217.057 270.396L209.609 273.321L208.452 268.711L207.295 264.101L209.822 262.501C211.212 261.621 213.17 260.906 214.173 260.913C215.176 260.92 217.911 262.398 220.251 264.198L224.504 267.47L217.057 270.396ZM152.583 269.623L149.407 270.235L148.258 267.241L147.109 264.248L149.053 262.304L150.997 260.36L153.99 261.509L156.984 262.658L156.372 265.834L155.76 269.011L152.583 269.623ZM239.71 267.838C238.707 267.684 235.049 267.214 231.582 266.793L225.277 266.03L220.037 262.298L214.796 258.567L210.329 260.602L205.862 262.637L204.134 258.093L202.407 253.548H200.611H198.815L199.031 248.532C199.149 245.773 198.694 240.848 198.019 237.588L196.792 231.659H200.184H203.575L207.046 235.494C208.954 237.603 212.617 240.416 215.185 241.744L219.854 244.158L219.568 252.62L219.283 261.083L220.829 258.684L222.375 256.284L221.332 251.316L220.288 246.348L226.023 248.347L231.758 250.346L238.47 249.306C242.162 248.734 246.824 247.774 248.831 247.172L252.479 246.077L255.887 248.578L259.295 251.079L258.022 256.874L256.749 262.669H254.366C253.056 262.669 249.633 263.895 246.759 265.394C243.885 266.892 240.713 267.992 239.71 267.838ZM1038.9 268.141C1038.4 268.141 1036.34 265.809 1034.31 262.958L1030.62 257.775L1033.34 253.884L1036.07 249.993L1033.26 244.565C1031.72 241.579 1030.45 238.588 1030.45 237.918C1030.45 237.247 1033.33 238.894 1036.85 241.577L1043.24 246.456L1052.28 249.137C1057.24 250.612 1061.76 252.559 1062.32 253.464L1063.34 255.11L1059.66 256.276L1055.99 257.442V260.09V262.738L1050.97 261.455C1048.21 260.749 1044.32 260.117 1042.31 260.052L1038.66 259.933L1039.23 264.037C1039.55 266.294 1039.4 268.141 1038.9 268.141ZM129.657 266.317C128.821 266.317 127.59 265.77 126.921 265.101C126.252 264.432 125.705 262.878 125.705 261.648V259.411L128.441 258.361L131.177 257.311V261.814V266.317H129.657ZM788.395 266.152C786.59 266.061 777.725 264 768.696 261.572L752.279 257.158L742.247 258.213L732.214 259.269L726.742 253.502L721.27 247.736L712.448 243.235L703.626 238.735L698.428 239.877L693.229 241.018L688.71 238.619L684.191 236.219L677.945 227.099L671.698 217.979L664.61 215.612C660.712 214.31 656.06 211.921 654.272 210.303L651.021 207.362L655.363 204.462C657.752 202.867 661.84 200.045 664.448 198.19L669.19 194.819L676.077 194.656L682.964 194.493L695.094 197.947L707.224 201.402L712.192 199.138L717.16 196.875L713.864 193.233L710.569 189.592L713.183 187.032L715.797 184.472L724.918 186.881C729.934 188.206 738.142 191.495 743.159 194.19L752.279 199.091L758.863 198.066L765.447 197.04L780.617 201.581C788.961 204.079 798.006 206.122 800.716 206.122H805.644L812.347 203.321L819.051 200.52L825.795 201.656C829.504 202.281 833.987 203.19 835.758 203.676L838.976 204.561L837.92 206.27L836.864 207.979L837.929 211.334L838.993 214.689L843.655 216.813L848.317 218.937L849.962 217.92L851.608 216.903L858.546 218.772C862.363 219.799 867.102 221.927 869.077 223.499L872.669 226.359L867.031 225.28L861.394 224.201L858.938 227.16C857.587 228.788 852.48 232.147 847.59 234.625L838.699 239.13L835.076 237.98L831.452 236.83L828.851 238.988L826.251 241.147L828.806 246.087L831.361 251.028L830.126 252.927C829.446 253.972 827.249 255.675 825.243 256.713C823.236 257.751 817.08 259.202 811.562 259.936L801.529 261.272L796.604 263.795C793.895 265.182 790.201 266.243 788.395 266.152ZM199.982 260.824L197.163 264.849L195.218 261.214L193.273 257.58L195.576 255.668L197.879 253.757L200.34 255.278L202.801 256.799L199.982 260.824ZM72.3236 262.327L69.1469 262.938L67.9982 259.945L66.8494 256.951L68.7931 255.008L70.7368 253.064L73.7303 254.213L76.7239 255.361L76.1121 258.538L75.5003 261.715L72.3236 262.327ZM79.8872 258.953C79.5039 258.915 77.8234 257.068 76.1525 254.848L73.1147 250.812L69.337 253.092C67.2592 254.346 64.4737 255.372 63.147 255.372C61.8203 255.372 59.3727 254.346 57.708 253.092L54.6812 250.812L56.5788 242.604L58.4764 234.395L56.4892 227.694L54.5019 220.992L46.2636 217.846L38.0253 214.7L38.6993 212.691L39.3732 210.682L45.7796 210.618L52.1859 210.554L57.0753 207.35L61.9646 204.146L63.6836 205.209L65.4026 206.271L70.9113 203.422L76.4199 200.574L79.383 196.052L82.3461 191.529H84.9297H87.5133L88.5931 194.343L89.6728 197.157L97.2002 201.183C101.34 203.398 105.959 205.328 107.464 205.472C108.969 205.616 111.021 205.834 112.024 205.956C113.027 206.078 114.959 206.882 116.317 207.742L118.785 209.306L116.55 213.642C115.32 216.027 112.288 220.153 109.811 222.811L105.308 227.644L108.444 229.399L111.58 231.154L112.106 237.778L112.631 244.401L110.959 245.434L109.288 246.467V250.215V253.963L101.031 252.724L92.7747 251.486L86.6793 255.253C83.3268 257.325 80.2704 258.99 79.8872 258.953ZM191.781 257.04C191.054 256.953 188.083 256.172 185.178 255.302L179.896 253.722L175.094 249.121L170.291 244.52L164.139 242.375L157.986 240.23L165.102 236.58C169.017 234.572 173.099 231.727 174.175 230.256L176.132 227.583L182.141 230.69L188.15 233.797L191.467 232.93L194.784 232.062L195.699 234.446L196.614 236.83L194.097 237.795L191.581 238.761L185.59 237.043L179.599 235.325L176.468 238.508L173.337 241.692L178.706 247.649C181.659 250.925 184.076 253.022 184.076 252.309C184.076 251.595 181.991 248.837 179.444 246.178L174.813 241.344L177.306 239.275L179.799 237.206L185.69 238.896L191.581 240.585L193.973 239.667L196.365 238.749L197.419 242.78L198.473 246.811L195.788 252.004C194.311 254.86 192.508 257.126 191.781 257.04ZM116.102 253.206L112.925 253.818L111.776 250.824L110.628 247.831L112.571 245.887L114.515 243.943L117.508 245.092L120.502 246.241L119.89 249.418L119.278 252.594L116.102 253.206ZM145.287 249.558L142.11 250.17L140.962 247.176L139.813 244.183L141.757 242.239L143.7 240.295L146.694 241.444L149.687 242.593L149.076 245.769L148.464 248.946L145.287 249.558ZM262.207 244.961L259.775 249.498L255.752 246.794L251.73 244.091L245.051 246.295L238.373 248.499L231.724 247.608L225.076 246.716L216.696 241.061C212.087 237.95 207.276 234.152 206.005 232.62L203.694 229.835H206.587H209.481L213.651 223.75L217.821 217.664L226.803 218.059L235.785 218.454L241.284 216.877L246.783 215.3L249.807 218.037L252.831 220.773L254.988 227.974L257.146 235.175L260.892 237.799L264.639 240.423L262.207 244.961ZM298.943 242.527C298.414 242.569 296.117 241.299 293.84 239.703L289.699 236.803L291.815 234.253L293.932 231.702L290.534 230.426C288.665 229.724 286.256 227.976 285.18 226.542L283.224 223.934L277.699 226.792L272.173 229.649L269.104 234.333L266.035 239.017L262.595 237.176L259.155 235.335L256.96 228.481L254.766 221.627L251.024 217.523L247.283 213.418H251.1C253.199 213.418 256.245 213.928 257.869 214.551L260.822 215.685L263.61 221.075L266.397 226.465L263.5 230.886C261.907 233.318 261.014 235.307 261.515 235.307C262.017 235.307 263.731 233.318 265.324 230.886L268.221 226.465L265.278 220.775L262.336 215.084L257.773 213.005L253.211 210.927L246.46 213.396L239.71 215.865L229.222 216.14L218.733 216.415L218.585 215.373C218.503 214.799 218.267 211.978 218.06 209.104L217.682 203.877L222.753 199.092L227.823 194.306L226.885 191.351L225.947 188.396L228.808 186.022L231.669 183.648L246.126 186.754L260.584 189.861L270.388 185.223C275.78 182.672 281.63 180.585 283.388 180.585H286.585L291.444 185.786C294.116 188.647 298.755 192.247 301.752 193.786C304.749 195.326 311.856 197.544 317.545 198.717L327.889 200.848L330.824 205.328L333.759 209.807L331.734 213.591L329.709 217.375L323.927 219.809C320.748 221.147 314.155 223.961 309.277 226.061L300.408 229.881L302.66 232.594L304.912 235.307L308.793 235.384L312.674 235.46L306.289 238.956C302.778 240.878 299.472 242.485 298.943 242.527ZM118.408 231.335L113.848 232.731L110.82 229.623L107.792 226.515L111.732 223.034L115.672 219.553L122.056 219.151L128.441 218.749L130.553 223.388L132.665 228.026L127.817 228.982C125.15 229.509 120.916 230.567 118.408 231.335ZM193.482 230.805L186.812 231.621L181.795 228.846C179.036 227.319 176.779 225.403 176.779 224.587C176.779 223.772 178.28 221.746 180.115 220.085L183.451 217.067H188.414H193.377L198.98 214.169L204.584 211.271L210.746 212.428C214.136 213.063 216.909 214.065 216.909 214.654C216.909 215.242 215.253 218.403 213.229 221.678L209.55 227.631L204.851 228.811C202.267 229.459 197.151 230.357 193.482 230.805ZM1028.91 229.835H1025.55L1022.73 226.643C1021.18 224.887 1017.45 218.524 1014.44 212.503L1008.97 201.555L996.751 187.93L984.534 174.306L986.856 173.532L989.179 172.758L992.943 177.77C995.013 180.527 998.759 184.744 1001.27 187.141C1003.78 189.538 1009.46 194.174 1013.89 197.442C1018.33 200.711 1022.3 204.412 1022.71 205.667L1023.46 207.949L1020.76 206.911L1018.05 205.873L1016.92 207.714L1015.78 209.555L1024.03 218.844C1028.56 223.953 1032.28 228.516 1032.28 228.984C1032.28 229.452 1030.76 229.835 1028.91 229.835ZM166.747 224.703L157.626 227.303L153.978 226.104C151.972 225.444 148.483 224.276 146.226 223.509L142.121 222.113V220.502V218.891H145.63H149.138L154.294 214.567L159.45 210.242L165.144 209.001L170.839 207.759L175.461 208.919L180.083 210.079L180.969 213.469L181.856 216.859L178.861 219.481L175.867 222.102L166.747 224.703ZM136.167 225.845L132.99 226.457L131.841 223.463L130.693 220.469L132.636 218.526L134.58 216.582L137.573 217.731L140.567 218.88L139.955 222.056L139.343 225.233L136.167 225.845ZM123.403 217.717L116.541 217.979L117.3 216.154C117.717 215.151 118.628 212.913 119.324 211.181L120.59 208.031L115.851 205.872L111.112 203.712L110.97 201.725C110.891 200.632 110.711 196.865 110.57 193.353L110.313 186.969L113.8 179.217L117.286 171.464H120.254H123.223L127.188 166.904L131.153 162.344H133.301C134.483 162.344 136.914 163.668 138.702 165.287L141.955 168.231L147.58 166.27L153.205 164.309L157.317 166.183L161.429 168.057L161.833 173.355C162.055 176.27 163.069 180.844 164.086 183.521C165.104 186.197 165.692 188.632 165.392 188.932C165.093 189.231 160.966 191.14 156.221 193.174L147.594 196.872V198.637C147.594 199.607 150.103 202.188 153.17 204.372L158.745 208.342L155.598 211.82L152.451 215.298L146.83 216.826L141.209 218.354L138.953 216.594L136.696 214.834L133.48 216.145C131.712 216.866 127.177 217.573 123.403 217.717ZM187.814 215.242H182.251L182.309 212.962L182.366 210.682L187.325 207.047L192.284 203.412L201.137 203.792C206.006 204.001 211.546 204.666 213.449 205.27L216.909 206.368V209.064V211.76L210.746 210.603L204.584 209.447L198.98 212.345L193.377 215.242H187.814ZM184.43 207.721L181.339 209.339L176.779 207.617L172.219 205.894L166.321 206.997L160.423 208.1L154.92 204.032C151.894 201.794 149.418 199.422 149.418 198.759C149.418 198.097 152.782 196.233 156.894 194.618L164.371 191.681L168.295 194.162C170.453 195.527 175.092 197.229 178.603 197.945C182.115 198.661 186.005 200.066 187.248 201.067L189.508 202.887L188.514 204.495C187.968 205.379 186.13 206.831 184.43 207.721ZM107.008 204.147C105.754 204.064 101.855 202.249 98.3433 200.115C94.832 197.981 91.0302 195.013 89.8949 193.52L87.8308 190.806L96.7353 183.716C101.633 179.817 105.64 175.971 105.64 175.17C105.64 174.369 107.451 173.24 109.664 172.661C111.878 172.083 114.014 171.934 114.411 172.331C114.808 172.729 113.281 176.762 111.018 181.294L106.903 189.533L103.655 187.795C101.869 186.839 98.9168 186.128 97.0952 186.214L93.7831 186.371L99.2554 188.178C102.265 189.172 105.754 190.059 107.008 190.149L109.288 190.313V193.462V196.611L106.552 197.661L103.816 198.711L103.96 201.049L104.104 203.386L105.024 201.106C105.53 199.852 106.696 198.826 107.616 198.826H109.288V201.562V204.298L107.008 204.147ZM214.769 204.07C214.441 203.944 210.479 203.203 205.965 202.424L197.756 201.006L193.973 201.857L190.189 202.708L187.821 199.855L185.453 197.002L182.484 196.899C180.851 196.842 176.704 195.816 173.269 194.618L167.022 192.441L166.656 188.793C166.454 186.787 165.459 181.681 164.444 177.447L162.598 169.748L172.64 165.991L182.681 162.234L186.57 163.582C188.71 164.323 192.101 165.143 194.108 165.405C196.114 165.666 202.169 166.18 207.563 166.547L217.37 167.214L219.796 171.619L222.222 176.025L221.295 179.126L220.369 182.227L223.278 187.852L226.187 193.477L220.776 198.887C217.8 201.863 215.097 204.195 214.769 204.07ZM39.9725 195.828L33.5882 197.01L37.2364 195.21C39.2429 194.221 43.1913 192.579 46.0106 191.562L51.1366 189.712L50.1527 188.12C49.6116 187.245 46.544 186.003 43.3359 185.362L37.503 184.195L40.8405 181.755L44.178 179.314L42.9895 177.391L41.8009 175.468L47.271 173.561L52.7411 171.654V169.854C52.7411 168.864 51.9264 165.911 50.9306 163.292L49.1201 158.53L46.8264 158.829C45.5649 158.993 43.4383 159.031 42.1006 158.912L39.6685 158.696L40.4861 156.416L41.3036 154.135L39.6618 150.943L38.0201 147.751L40.1814 143.647C41.3701 141.39 43.2459 138.94 44.3498 138.203C45.4537 137.466 46.9724 136.85 47.7249 136.835L49.093 136.807L48.6369 139.043L48.1809 141.28L52.4621 141.93L56.7433 142.579L52.6526 146.933L48.5619 151.288L53.1732 153.041L57.7846 154.794L61.2511 159.937C63.1577 162.766 66.0827 168.093 67.7512 171.775L70.7847 178.471L74.3257 177.545L77.8666 176.619L78.9689 178.402L80.0711 180.186L75.3316 183.291L70.592 186.397L72.668 188.473L74.7439 190.549L60.5504 192.597C52.7439 193.724 43.4839 195.177 39.9725 195.828ZM10.5665 186.813L7.60968 188.091L6.47517 185.134L5.34064 182.178L8.05718 176.925L10.7737 171.671L8.95631 170.548C7.95675 169.93 7.13892 168.708 7.13892 167.831V166.238L11.2431 164.987C13.5004 164.299 16.707 162.545 18.3688 161.088L21.3904 158.439L27.4893 159.023L33.5882 159.608V162.344V165.08L29.7114 165.633L25.8345 166.186L22.871 163.223L19.9075 160.259V162.372V164.485L24.9843 166.401L30.061 168.317L29.3632 174.295L28.6654 180.272L21.0943 182.903C16.9302 184.35 12.1927 186.109 10.5665 186.813ZM227.879 185.122L224.205 188.447L223.95 186.796C223.81 185.888 223.517 182.023 223.299 178.207L222.902 171.269L228.273 170.195L233.643 169.121L239.963 160.656L246.282 152.191L256.04 153.978L265.797 155.766L269.004 161.194L272.211 166.623L272.476 174.478L272.741 182.332L266.709 185.195L260.677 188.057L246.114 184.928L231.552 181.798L227.879 185.122ZM227.559 168.728L221.469 170.552L217.381 166.4L213.293 162.247L213.733 160.059L214.173 157.87L210.24 157.267L206.308 156.663L205.15 152.052L203.993 147.441L205.102 143.948L206.21 140.455H208.944C210.447 140.455 213.415 141.385 215.539 142.522L219.401 144.589L222.576 140.667L225.751 136.746L233.962 138.942L242.172 141.138L244.169 145.52L246.165 149.902L239.907 158.403L233.649 166.904L227.559 168.728ZM240.166 156.791C240.417 156.835 240.622 156.482 240.622 156.006C240.622 155.531 237.955 153.751 234.694 152.051L228.766 148.961L218.358 148.4L207.95 147.838L207.131 149.163L206.312 150.487L216.627 150.287L226.942 150.087L233.326 153.398C236.837 155.22 239.915 156.747 240.166 156.791ZM208.766 165.744C206.724 165.607 203.188 165.137 200.909 164.7L196.766 163.904L200.73 160.694L204.695 157.484L208.587 158.228L212.479 158.972V162.482V165.992L208.766 165.744ZM127.608 162.344H126.161L125.07 156.892L123.98 151.439L124.995 148.793C125.554 147.337 128.115 144.768 130.686 143.083L135.361 140.02L134.161 147.525L132.961 155.031L136.173 154.494C137.94 154.199 141.244 152.936 143.517 151.688L147.648 149.418L148.737 152.256L149.826 155.094L147.556 157.829L145.286 160.565L143.113 158.762L140.94 156.958L138.795 159.104L136.649 161.249V159.061V156.872H134.717H132.786L133.795 158.505L134.804 160.138L131.929 161.241C130.348 161.847 128.403 162.344 127.608 162.344ZM157.238 155.048C156.257 155.048 154.194 153.611 152.652 151.855C151.111 150.1 149.234 146.611 148.482 144.103C147.73 141.595 145.562 137.337 143.664 134.641L140.212 129.739L142.744 128.257C144.136 127.441 146.614 124.154 148.251 120.951L151.226 115.129L149.07 105.786L146.913 96.4441L151.658 92.4562L156.402 88.4683L159.274 82.6693L162.146 76.8703L165.816 75.7056L169.485 74.541L174.16 68.412L178.835 62.283L187.252 59.4149C191.882 57.8374 197.214 56.5467 199.101 56.5467H202.532L201.461 58.2793L200.39 60.0119L203.941 61.9123L207.492 63.8128L208.685 69.2444L209.878 74.6759L199.257 85.4161L188.636 96.1563L184.512 97.4578L180.387 98.7593L177.552 104.241L174.718 109.723L177.524 114.006L180.33 118.289L184.027 119.462C186.06 120.108 187.724 121.343 187.724 122.207C187.724 123.071 186.428 125.073 184.845 126.656C183.262 128.239 180.534 130.301 178.782 131.239L175.597 132.943L173.417 140.22L171.237 147.497L165.128 151.272C161.768 153.349 158.218 155.048 157.238 155.048ZM239.142 138.515C237.448 138.452 234.064 137.601 231.621 136.625L227.18 134.851L224.952 135.706L222.724 136.561L219.433 132.924L216.142 129.288L218.806 127.603L221.469 125.918L226.942 126.106C229.951 126.209 234.466 126.812 236.974 127.446L241.534 128.598L241.878 133.614L242.221 138.631L239.142 138.515Z" fill="#1A75BB" fill-opacity="0.08"></path><path d="M878.5 424C871 432.333 863.8 423.8 833 387C794.5 341 724.5 373.5 684.5 341C644.5 308.5 655 272.5 600 278.5C545 284.5 404 244 401 214.5C398.6 190.9 338.667 155.333 309 140.5" stroke="#1A75BB" stroke-opacity="0.2" stroke-dasharray="2 2"></path><path d="M882 422C890.167 423.167 917.8 403 893 359C862 304 854.5 304 748 254C641.5 204 600.5 159.5 510.5 163C420.5 166.5 385 127 351.5 130.5C324.7 133.3 311.333 136.667 308 138" stroke="#1A75BB" stroke-opacity="0.2" stroke-dasharray="2 2"></path><circle cx="880.5" cy="422.5" r="5" fill="#ED2121"></circle><circle cx="880.5" cy="422.5" r="7.25" stroke="#ED2121" stroke-width="0.5"></circle><circle cx="310.5" cy="140.5" r="5" fill="#ED2121"></circle><circle cx="310.5" cy="140.5" r="7.25" stroke="#ED2121" stroke-width="0.5"></circle></g><defs><clipPath id="clip0_53_242"><rect width="1160" height="602.219" fill="white"></rect></clipPath></defs></svg> 