<?xml version="1.0" encoding="UTF-8"?> <svg xmlns="http://www.w3.org/2000/svg" width="705" height="282" viewBox="0 0 705 282" fill="none"><g clip-path="url(#clip0_16_206)"><path d="M69.9194 133.328C61.7911 126.154 57.6441 114.21 57.6441 97.29C57.6441 80.4115 61.7497 69.3803 69.8779 62.2474C78.3379 54.8656 92.0647 51.1332 110.643 51.1332H201.464C202.086 51.1332 202.584 50.6356 202.584 50.0135V3.81529C202.584 3.19323 202.086 2.6956 201.506 2.6956L108.072 2.15646C74.4811 2.03205 48.2303 10.0359 29.9417 26.002C11.3629 42.3 1.9491 66.2285 1.9491 97.2071C1.9491 128.351 11.3629 152.321 29.9417 168.536C48.1888 184.461 74.4397 192.506 107.989 192.506H203.869C204.491 192.506 204.948 192.009 204.948 191.428V145.603C204.948 144.981 204.45 144.525 203.869 144.525H110.643C92.0647 144.566 78.3379 140.793 69.9194 133.328Z" fill="#FCFCFC"></path><path d="M447.302 145.727V191.47C447.302 192.092 446.804 192.589 446.182 192.589H236.465C235.843 192.589 235.346 192.092 235.346 191.47V132.872C235.346 114.417 240.737 99.778 251.436 89.3275C262.053 78.8354 277.314 73.5687 296.764 73.5687H374.811V95.009C374.811 95.9628 375.972 96.4605 376.677 95.7969L408.817 64.5695C409.273 64.1548 409.273 63.4084 408.817 62.9937L376.677 31.7249C375.972 31.0613 374.811 31.5589 374.811 32.5128V51.1331H240.364C239.7 51.1331 239.202 50.594 239.202 49.9719V4.0225C239.202 3.35897 239.742 2.86133 240.364 2.86133H383.976C402.97 2.86133 418.107 8.2525 428.93 18.8275C439.879 29.4854 445.394 44.166 445.394 62.4131C445.394 80.6601 439.879 95.3407 428.93 105.957C418.107 116.532 402.928 121.923 383.976 121.923H302.113C297.51 121.923 294.234 122.836 292.451 124.66C290.626 126.485 289.714 129.347 289.714 133.328V135.982C289.714 140.71 293.57 144.566 298.298 144.566H446.141C446.763 144.566 447.302 145.064 447.302 145.727Z" fill="#1C75BB"></path><path d="M658.964 124.578C668.917 121.136 677.045 115.537 683.349 107.907C691.85 97.539 696.122 83.356 696.122 65.7725C696.122 44.9957 690.191 29.0711 678.497 18.4131C667.009 7.96252 651.085 2.61279 631.013 2.61279H477.53V193.834H533.101V128.932H599.786L636.819 192.59H700.849L658.964 124.578ZM637.068 77.5087C634.911 79.5408 631.303 80.5775 626.451 80.5775L533.142 80.3287V50.8846H626.451C631.345 50.8846 634.953 51.9213 637.109 53.9119C638.229 54.9072 640.095 57.8102 640.095 65.731C640.095 71.5369 639.017 75.684 637.068 77.5087Z" fill="#FCFCFC"></path><path d="M23.76 244.456H30.1879V275.518H51.255V281.572H23.8015V244.456H23.76Z" fill="#FCFCFC"></path><path d="M121.879 244.042C132.413 244.042 140.873 252.004 140.873 263.035C140.873 273.942 132.454 282.029 121.879 282.029C111.387 282.029 102.886 274.066 102.886 263.035C102.927 252.336 111.221 244.042 121.879 244.042ZM121.879 275.849C128.764 275.849 134.196 270.707 134.196 263.035C134.196 255.28 128.349 250.221 121.879 250.221C115.244 250.221 109.563 255.322 109.563 263.035C109.604 270.707 115.327 275.849 121.879 275.849Z" fill="#FCFCFC"></path><path d="M214.072 261.749H230.079V276.14C226.637 279.914 221.08 282.029 215.44 282.029C203.994 282.029 195.659 274.564 195.659 263.035C195.659 252.419 203.621 244.042 214.735 244.042C220.997 244.042 226.471 246.281 229.209 250.013L224.896 254.077C222.739 251.631 219.38 250.138 215.026 250.138C207.354 250.138 202.294 255.114 202.294 262.952C202.294 271.122 207.851 275.766 215.482 275.766C218.343 275.766 221.454 275.02 223.859 273.154V267.472H213.989V261.749H214.072Z" fill="#FCFCFC"></path><path d="M286.893 244.456H293.321V281.572H286.893V244.456Z" fill="#FCFCFC"></path><path d="M350.631 254.534C350.631 248.811 356.562 244.042 365.146 244.042C371.201 244.042 376.302 246.074 379.537 249.35L376.053 253.911C372.86 251.257 369.459 250.055 365.022 250.055C361.082 250.055 357.267 251.257 357.267 254.409C357.267 261.874 380.159 257.436 380.159 271.08C380.159 277.591 373.731 282.07 365.893 282.07C359.216 282.07 352.746 279.043 349.553 275.269L353.369 270.749C356.562 274.108 361.289 276.057 366.473 276.057C370.911 276.057 373.523 274.356 373.523 271.536C373.565 263.159 350.631 268.136 350.631 254.534Z" fill="#FCFCFC"></path><path d="M433.119 244.456H464.471V250.511H452.029V281.572H445.602V250.511H433.16V244.456H433.119Z" fill="#FCFCFC"></path><path d="M519.543 244.456H525.971V281.572H519.543V244.456Z" fill="#FCFCFC"></path><path d="M616.869 275.103C613.8 279.457 608.119 281.987 601.815 281.987C590.162 281.987 582.739 274.522 582.739 262.994C582.739 252.377 590.203 244 601.732 244C608.451 244 613.759 246.696 616.33 250.428L612.1 254.451C609.57 251.631 606.128 250.138 602.064 250.138C594.433 250.138 589.457 255.239 589.457 262.952C589.457 270.666 594.765 275.766 602.354 275.766C607.041 275.766 610.607 273.9 613.178 270.873L616.869 275.103Z" fill="#FCFCFC"></path><path d="M671.324 254.534C671.324 248.811 677.254 244.042 685.839 244.042C691.893 244.042 696.994 246.074 700.229 249.35L696.745 253.911C693.552 251.257 690.152 250.055 685.714 250.055C681.774 250.055 677.959 251.257 677.959 254.409C677.959 261.874 700.851 257.436 700.851 271.08C700.851 277.591 694.423 282.07 686.585 282.07C679.908 282.07 673.439 279.043 670.246 275.269L674.061 270.749C677.254 274.108 681.982 276.057 687.166 276.057C691.603 276.057 694.216 274.356 694.216 271.536C694.216 263.159 671.324 268.136 671.324 254.534Z" fill="#FCFCFC"></path></g><defs><clipPath id="clip0_16_206"><rect width="705" height="282" fill="white"></rect></clipPath></defs></svg> 