<?xml version="1.0" encoding="UTF-8"?> <svg xmlns="http://www.w3.org/2000/svg" width="40" height="40" viewBox="0 0 40 40" fill="none"> <rect width="40" height="40" rx="6" fill="#FCFCFC"></rect> <path d="M7.03529 7.03539C7.01513 7.05051 7 7.17152 7 7.29758C7 7.73119 7.30757 11.4119 7.35294 11.5228C7.4437 11.7447 7.60505 11.669 8.10925 11.1598L8.58825 10.6808L9.68238 11.7699L10.7765 12.864L10.9681 12.8338C11.1295 12.8035 11.2757 12.6825 11.9765 11.9766C12.6824 11.2758 12.8034 11.1295 12.8337 10.9682L12.8639 10.7766L11.7698 9.68247L10.6807 8.58834L11.1597 8.10935C11.669 7.60514 11.7446 7.44379 11.5278 7.35304C11.4168 7.30766 7.68068 6.99505 7.27227 7.00009C7.16135 7.00009 7.05042 7.01522 7.03529 7.03539Z" fill="#1A75BB"></path> <path d="M29.3616 7.17152C28.338 7.25724 27.4657 7.348 27.4355 7.36816C27.2792 7.46901 27.375 7.64044 27.8489 8.10935L28.3279 8.58834L27.2388 9.68247L26.1447 10.7766L26.175 10.9682C26.2052 11.1295 26.3262 11.2758 27.0321 11.9766C27.733 12.6825 27.8792 12.8035 28.0405 12.8338L28.2321 12.864L29.3263 11.7699L30.4204 10.6808L30.8994 11.1598C31.4036 11.669 31.5649 11.7447 31.6557 11.5228C31.7112 11.3867 32.0238 7.50934 31.9986 7.22699L31.9834 7.0253L31.6053 7.01522C31.3985 7.01522 30.3901 7.08077 29.3616 7.17152Z" fill="#1A75BB"></path> <path d="M19.3581 10.8724C19.1766 10.9026 16.7665 12.2993 16.8169 12.3447C16.8371 12.3648 18.5413 13.3531 20.6035 14.543L24.3447 16.701V18.3699C24.3447 20.0389 24.3447 20.0439 24.2338 20.1447C24.0371 20.3212 22.4287 21.2237 22.338 21.2086C22.2623 21.1935 22.2522 21.0422 22.227 19.5599L22.2018 17.9212L18.4152 15.738L14.6286 13.5497L13.3782 14.2707C12.4706 14.7951 12.1026 15.0321 12.037 15.143C11.9463 15.2892 11.9412 15.501 11.9412 19.5044C11.9412 23.5078 11.9463 23.7196 12.037 23.8658C12.1076 23.9818 12.9597 24.496 15.6976 26.0793C19.0152 27.9902 19.2825 28.1364 19.5043 28.1364C19.7262 28.1364 19.9884 27.9952 23.2153 26.1347C25.1262 25.0305 26.7397 24.0927 26.8052 24.0523C27.0775 23.8759 27.0674 24.0271 27.0674 19.5044C27.0674 14.9817 27.0775 15.1329 26.8052 14.9565C26.2203 14.5783 19.7463 10.8926 19.6304 10.8724C19.5497 10.8623 19.4236 10.8573 19.3581 10.8724ZM15.0723 18.5817C16.0152 19.1262 16.8119 19.6153 16.8371 19.6708C16.9026 19.7868 16.7715 20.0086 16.6354 20.0086C16.5194 20.0086 13.0959 18.0321 13.0303 17.9262C12.9496 17.8002 13.0706 17.5884 13.2269 17.5884C13.2975 17.5884 14.0841 18.0119 15.0723 18.5817ZM14.0891 19.5599C15.1076 20.1498 15.1681 20.1901 15.1681 20.3363C15.1681 20.4826 14.9917 20.6187 14.8656 20.5733C14.8202 20.5531 14.3917 20.3162 13.9127 20.0389C13.2269 19.6456 13.0404 19.5145 13.0152 19.4136C12.995 19.3178 13.0152 19.2624 13.1009 19.1918C13.1614 19.1414 13.2269 19.101 13.2471 19.101C13.2673 19.101 13.6454 19.3078 14.0891 19.5599Z" fill="#1A75BB"></path> <path d="M9.68237 27.2389L8.58825 28.328L8.10925 27.849C7.60504 27.3397 7.4437 27.2641 7.35294 27.4809C7.29748 27.6221 6.98487 31.4995 7.01008 31.7818C7.02521 31.9784 7.03025 31.9835 7.22689 31.9986C7.5042 32.0238 11.3866 31.7112 11.5278 31.6558C11.7446 31.565 11.6689 31.4037 11.1597 30.8994L10.6807 30.4205L11.7698 29.3263L12.8639 28.2322L12.8337 28.0406C12.8034 27.8793 12.6824 27.733 11.9765 27.0322C11.2757 26.3263 11.1294 26.2053 10.9681 26.175L10.7765 26.1448L9.68237 27.2389Z" fill="#1A75BB"></path> <path d="M27.8994 26.2103C27.8439 26.2305 27.4405 26.6137 27.0019 27.0524C26.3262 27.733 26.2052 27.8793 26.175 28.0406L26.1447 28.2322L27.2388 29.3263L28.3279 30.4205L27.8489 30.8994C27.3447 31.4037 27.2641 31.565 27.4859 31.6507C27.622 31.7112 31.5044 32.0238 31.7817 31.9986C31.9784 31.9835 31.9834 31.9784 31.9986 31.7818C32.0238 31.4995 31.7112 27.6221 31.6557 27.4809C31.5649 27.2641 31.4036 27.3398 30.8994 27.849L30.4204 28.328L29.3363 27.244C28.212 26.1246 28.1666 26.0944 27.8994 26.2103Z" fill="#1A75BB"></path> </svg> 