<?xml version="1.0" encoding="UTF-8"?> <svg xmlns="http://www.w3.org/2000/svg" width="40" height="40" viewBox="0 0 40 40" fill="none"><rect width="40" height="40" rx="6" fill="#D60628"></rect><path d="M12.2929 7.06541C11.2126 7.41794 10.5303 8.56082 10.7349 9.67528C10.9624 10.8978 12.1337 11.7222 13.3732 11.5289C14.1238 11.4095 14.7493 10.9376 15.079 10.2382C15.2496 9.88566 15.261 9.81174 15.261 9.2602C15.261 8.70866 15.2496 8.63474 15.079 8.28221C14.8573 7.81027 14.5048 7.44637 14.0271 7.20756C13.703 7.03698 13.6121 7.01992 13.1003 7.00286C12.7307 6.99149 12.4464 7.01423 12.2929 7.06541Z" fill="#FCFCFC"></path><path d="M26.1497 7.03701C25.5129 7.24739 24.9841 7.70227 24.7111 8.28224C24.5405 8.63477 24.5292 8.70869 24.5292 9.26023C24.5292 9.81177 24.5405 9.88569 24.7111 10.2382C25.3878 11.6654 27.23 12.0066 28.3843 10.9149C29.5442 9.81746 29.2144 7.84442 27.7531 7.16778C27.4802 7.04269 27.3381 7.01426 26.8604 7.00289C26.5477 6.9972 26.2293 7.00858 26.1497 7.03701Z" fill="#FCFCFC"></path><path d="M12.0541 12.1657C10.8544 12.3989 9.76266 13.0812 9.03485 14.0478C8.47762 14.7813 8.15352 15.5887 8.0398 16.4985L8 16.8226H9.96167H11.9233L12.111 16.5212C12.9127 15.2476 14.1409 14.116 15.4259 13.4565C15.7557 13.2916 16.0229 13.1324 16.0116 13.1039C15.9831 13.0186 15.3065 12.632 14.8744 12.45C14.6469 12.3591 14.266 12.2453 14.0272 12.1942C13.5552 12.0975 12.4806 12.0805 12.0541 12.1657Z" fill="#FCFCFC"></path><path d="M25.9791 12.1373C25.4901 12.234 24.9272 12.4273 24.5007 12.6434C24.0345 12.8879 23.3635 13.3712 23.3237 13.4963C23.3124 13.5304 23.5569 13.7237 23.8582 13.9227C24.6145 14.4174 25.7119 15.5148 26.2065 16.2653L26.5704 16.8226H29.1746H31.7788V16.6918C31.7788 16.4075 31.5571 15.5148 31.3865 15.1225C30.8065 13.7635 29.7091 12.7741 28.2535 12.3022C27.8327 12.1657 27.6622 12.143 26.9457 12.1259C26.4908 12.1203 26.0587 12.1259 25.9791 12.1373Z" fill="#FCFCFC"></path><path d="M18.6726 13.0471C16.6427 13.2518 15.0563 13.9853 13.6974 15.3442C10.8544 18.1872 10.6042 22.6678 13.1174 25.8065C15.6363 28.9565 20.2647 29.6616 23.6308 27.4042C25.9791 25.8235 27.3267 23.0033 27.0594 20.2285C26.8718 18.2498 26.1383 16.6861 24.7623 15.3158C23.608 14.1672 22.1752 13.4224 20.6343 13.1608C20.0657 13.0698 19.0593 13.0073 18.6726 13.0471ZM20.5604 14.4572C22.2662 14.8268 23.7559 15.8332 24.7054 17.2661C25.1433 17.92 25.5242 18.8468 25.7062 19.694C25.8028 20.1489 25.7972 21.6443 25.7005 22.0821C25.2342 24.1859 24.0118 25.8121 22.2093 26.7219C21.1688 27.2507 20.4523 27.4213 19.2696 27.4213C18.3485 27.427 18.0358 27.3815 17.2511 27.137C14.8971 26.3978 13.1288 24.3053 12.7535 21.8263C12.31 18.8866 13.993 15.9526 16.7678 14.8154C17.2739 14.6107 17.7856 14.4686 18.3428 14.3776C18.8034 14.3037 20.0714 14.3492 20.5604 14.4572Z" fill="#FCFCFC"></path><path d="M18.3371 14.8893C15.7216 15.3044 13.6917 17.3173 13.2709 19.9214C13.015 21.468 13.4188 23.1852 14.3171 24.4248C14.4138 24.5612 14.5161 24.6693 14.5389 24.6693C14.5616 24.6693 14.6924 24.5157 14.8289 24.3281C15.4259 23.515 16.3982 22.7815 17.3535 22.4403L17.8652 22.2584L17.6719 22.1162C16.6882 21.3941 16.2333 20.2114 16.5119 19.1254C16.7678 18.1531 17.5297 17.3627 18.4679 17.0841C18.6385 17.033 18.9853 16.9932 19.2412 16.9932C20.0259 16.9932 20.6741 17.2604 21.2256 17.8119C22.4652 19.0572 22.2775 21.0359 20.8105 22.1162L20.6172 22.2584L21.129 22.4403C22.0842 22.7815 23.0565 23.515 23.6535 24.3281C23.79 24.5157 23.9208 24.6693 23.9435 24.6693C24.0288 24.6693 24.3927 24.1177 24.6713 23.5605C24.8249 23.2478 25.0239 22.736 25.1092 22.4233C25.2456 21.9115 25.257 21.7523 25.257 20.8881C25.257 20.0124 25.2456 19.8646 25.1035 19.3585C24.8192 18.3009 24.3472 17.4765 23.591 16.6861C22.8006 15.8616 21.8454 15.3044 20.7594 15.0258C20.1396 14.8609 18.9285 14.7984 18.3371 14.8893Z" fill="#FCFCFC"></path><path d="M18.4622 17.6129C17.8424 17.8631 17.3136 18.3635 17.1033 18.915C16.5688 20.3138 17.416 21.8149 18.8773 22.048C20.3386 22.2811 21.635 21.1098 21.527 19.6428C21.4701 18.7956 20.9982 18.0906 20.2476 17.721C19.9065 17.5504 19.8155 17.5333 19.2981 17.522C18.8489 17.5106 18.6726 17.5276 18.4622 17.6129Z" fill="#FCFCFC"></path><path d="M18.2177 22.7019C16.8872 23.009 15.8524 23.7083 15.0791 24.8285L14.8914 25.0957L15.261 25.4426C15.949 26.0794 16.9668 26.5968 17.9619 26.8129C18.6214 26.955 19.861 26.955 20.5206 26.8129C21.5156 26.5968 22.5391 26.0794 23.2214 25.4426L23.591 25.0957L23.3806 24.7887C22.7267 23.8334 21.7601 23.134 20.6058 22.7872C20.0884 22.6337 18.7351 22.5825 18.2177 22.7019Z" fill="#FCFCFC"></path><path d="M25.8085 26.0396C25.5242 26.4205 24.586 27.3474 24.2562 27.5691C24.1425 27.6487 24.0459 27.7226 24.0515 27.7397C24.0515 27.7567 24.8476 28.6494 25.8256 29.7298C27.9066 32.0326 27.901 32.0269 28.7084 31.9928C29.2599 31.9644 29.5442 31.8507 29.8797 31.5095C30.4199 30.9693 30.5336 29.9686 30.1128 29.3716C30.0161 29.2294 26.1326 25.687 26.0814 25.6927C26.0701 25.6984 25.9507 25.8519 25.8085 26.0396Z" fill="#FCFCFC"></path></svg> 