<?xml version="1.0" encoding="UTF-8"?> <svg xmlns="http://www.w3.org/2000/svg" width="40" height="40" viewBox="0 0 40 40" fill="none"><rect width="40" height="40" rx="6" fill="#D60628"></rect><path d="M18.9069 8.40137C18.5895 9.17773 18.3258 9.8125 18.3161 9.82227C18.3112 9.83203 17.6813 9.90527 16.9196 9.98828C16.1628 10.0713 15.5231 10.1543 15.4987 10.1738C15.4792 10.1885 15.9284 10.6279 16.4997 11.1504C17.071 11.668 17.5446 12.1074 17.5544 12.127C17.5592 12.1416 17.4372 12.7861 17.276 13.5576C17.1198 14.3291 16.9977 14.959 17.0075 14.959C17.0172 14.959 17.5837 14.6367 18.2672 14.2461L19.5172 13.5381L20.7672 14.2461C21.4557 14.6367 22.027 14.959 22.0319 14.959C22.0417 14.959 21.9147 14.3291 21.7585 13.5576C21.5973 12.7861 21.4753 12.1416 21.4801 12.127C21.4899 12.1074 21.9635 11.668 22.5348 11.1504C23.1061 10.6279 23.5553 10.1885 23.5358 10.1738C23.5114 10.1543 22.8717 10.0713 22.1149 9.98828C21.3532 9.90527 20.7233 9.83203 20.7184 9.82227C20.7135 9.8125 20.445 9.17773 20.1276 8.40137C19.8102 7.62988 19.5368 7 19.5172 7C19.4977 7 19.2243 7.62988 18.9069 8.40137Z" fill="#FCFCFC"></path><path d="M10.6403 10.9014L10.1862 11.917L9.12662 12.0293C8.54556 12.0928 8.03775 12.1563 8.00357 12.1709C7.96451 12.1953 8.24771 12.4785 8.77505 12.957C9.43423 13.5528 9.60513 13.7334 9.5856 13.8115C9.49771 14.1631 9.16568 15.8623 9.17544 15.8965C9.18521 15.916 9.61978 15.6914 10.1422 15.3887C10.6647 15.0908 11.1188 14.8467 11.1432 14.8467C11.1725 14.8467 11.6168 15.0957 12.1393 15.3936C12.6618 15.6914 13.0915 15.9307 13.1012 15.9209C13.111 15.9111 13.0231 15.4278 12.901 14.8418C12.779 14.2608 12.6813 13.7676 12.6813 13.7432C12.6813 13.7188 13.0377 13.3721 13.4772 12.9766C13.9118 12.5762 14.2682 12.2295 14.2682 12.2051C14.2682 12.1709 13.8141 12.1026 13.1745 12.0293L12.0856 11.9072L11.6315 10.9063C11.3825 10.3594 11.1579 9.90529 11.1383 9.89552C11.1139 9.89064 10.8893 10.3399 10.6403 10.9014Z" fill="#FCFCFC"></path><path d="M27.7497 10.1348C27.1637 11.4531 26.9733 11.8633 26.9489 11.8877C26.9294 11.9072 26.4753 11.9658 25.9381 12.0244C24.859 12.1416 24.7272 12.1612 24.7516 12.2197C24.7614 12.2393 25.1227 12.5811 25.5622 12.9766C25.9967 13.377 26.3532 13.7188 26.3532 13.7432C26.3532 13.7676 26.2555 14.2608 26.1335 14.8418C26.0114 15.4278 25.9235 15.9112 25.9333 15.9209C25.943 15.9307 26.1579 15.8184 26.4069 15.6768C26.6608 15.5303 27.1003 15.2813 27.3835 15.1201L27.901 14.8272L28.8727 15.3789C29.4049 15.6817 29.8493 15.916 29.859 15.8916C29.8688 15.8623 29.5368 14.1778 29.4489 13.8115C29.4294 13.7334 29.6003 13.5528 30.2594 12.9619C30.7965 12.4737 31.07 12.1953 31.0309 12.1709C30.9967 12.1563 30.4889 12.0928 29.9079 12.0293L28.8483 11.917L28.3942 10.9014C28.1452 10.3399 27.9254 9.88088 27.901 9.88088C27.8815 9.88088 27.8131 9.99806 27.7497 10.1348Z" fill="#FCFCFC"></path><path d="M11.4167 17.3955C11.2165 17.7813 8.97037 22.5859 8.97037 22.6201C8.97037 22.6445 9.5563 22.918 10.2741 23.2402C10.9967 23.5576 11.651 23.8848 11.7389 23.958C11.9196 24.1191 12.1247 24.5244 12.1735 24.8174C12.193 24.9248 12.2223 25.0176 12.2467 25.0176C12.2711 25.0176 12.3835 24.9443 12.5006 24.8564C12.7838 24.6416 13.2526 24.5098 13.5797 24.5537C14.2487 24.6416 14.7614 25.0713 14.9616 25.7158L15.0397 25.9844H15.401C15.7086 25.9844 15.8112 26.0088 16.0749 26.1357C16.446 26.3213 16.7487 26.6387 16.8708 26.9805C16.9294 27.1563 16.9733 27.21 17.027 27.1855C17.0661 27.166 17.2565 27.1416 17.442 27.1318C17.7155 27.1123 17.8424 27.127 18.0768 27.2197C18.443 27.3564 18.8727 27.7666 18.9997 28.1035C19.0876 28.3232 19.0973 28.333 19.2438 28.2988C19.3268 28.2793 19.5368 28.2646 19.7126 28.2646C20.0788 28.2695 20.4596 28.4209 20.7331 28.6797C20.8258 28.7627 21.3434 29.0801 21.8805 29.3779C22.7643 29.8662 22.8864 29.9199 23.1061 29.9199C23.8288 29.9199 24.1901 29.0313 23.6628 28.5381C23.5993 28.4844 22.9401 28.0938 22.193 27.6738C21.446 27.2539 20.8112 26.8682 20.7868 26.8193C20.6501 26.5654 20.8258 26.2383 21.0993 26.2383C21.1823 26.2383 21.8708 26.5947 22.9499 27.2002C24.8542 28.2646 24.9323 28.2939 25.3229 28.0986C25.7721 27.8643 25.8942 27.2734 25.5719 26.8633C25.5231 26.7949 24.8786 26.4043 24.151 25.9893C23.4186 25.5791 22.7643 25.1982 22.7008 25.1396C22.5299 24.9883 22.5348 24.749 22.7106 24.5928C22.7838 24.5342 22.8913 24.4805 22.9499 24.4805C23.0085 24.4805 23.7604 24.8809 24.6198 25.3643C26.026 26.165 26.2116 26.2529 26.4557 26.2725C26.9684 26.3164 27.2858 26.0527 27.3151 25.5596C27.3297 25.3447 27.3102 25.2471 27.2223 25.0908C27.1198 24.915 26.9049 24.7783 24.9128 23.6406C23.7018 22.9521 22.6178 22.3516 22.5006 22.3076C22.0026 22.1367 21.4557 22.2393 20.1178 22.7666C19.0876 23.1719 18.5456 23.333 17.9889 23.4063C17.154 23.5186 16.3239 23.25 15.6794 22.6592C15.2106 22.2295 14.9762 21.917 14.9762 21.7266C14.9762 21.5166 15.0348 21.4531 15.4889 21.1846C16.0456 20.8525 16.7389 20.374 17.2467 19.9639C17.7594 19.5537 18.8581 18.5234 18.8581 18.4551C18.8581 18.4258 18.7262 18.3623 18.5651 18.3086C18.0866 18.1523 17.2711 18.1719 16.4362 18.3672C14.9079 18.7188 14.7614 18.7041 13.2428 18.001C12.6276 17.7178 11.9831 17.4199 11.8122 17.3467L11.5094 17.21L11.4167 17.3955Z" fill="#FCFCFC"></path><path d="M26.988 18.2842C25.8844 18.8896 25.777 18.9287 25.3034 18.9336C24.8493 18.9336 24.6149 18.8701 23.5944 18.4746C22.3639 17.9961 21.7243 17.9326 20.8991 18.2061C20.1862 18.4453 19.6003 18.8555 18.5895 19.8174C17.9596 20.418 17.32 20.9209 16.5143 21.4531C16.2214 21.6484 15.9674 21.8193 15.9528 21.8291C15.904 21.8779 16.4313 22.293 16.7292 22.4443C17.0075 22.5811 17.1051 22.6006 17.5348 22.6152C18.1696 22.6396 18.5212 22.5518 19.8493 22.0342C20.401 21.8193 21.026 21.5996 21.2458 21.5508C21.7878 21.4189 22.3346 21.4238 22.7399 21.5654C23.1208 21.6973 27.3883 24.1338 27.5983 24.3389C27.6813 24.417 27.7692 24.4805 27.7936 24.4805C27.8327 24.4805 30.0348 23.5723 30.1032 23.5283C30.1423 23.5039 27.9108 17.8643 27.8571 17.8545C27.8229 17.8496 27.4323 18.0449 26.988 18.2842Z" fill="#FCFCFC"></path><path d="M13.0329 25.4375C12.8327 25.54 12.7838 25.6084 12.2907 26.5312C11.8317 27.3906 11.7877 27.5664 11.9391 27.9131C12.1491 28.3916 12.7594 28.5234 13.1842 28.1914C13.3307 28.0742 14.1901 26.4922 14.2292 26.2676C14.2682 26.0283 14.1657 25.7402 13.9752 25.5547C13.8239 25.4082 13.7702 25.3887 13.4967 25.374C13.2819 25.3594 13.1452 25.3789 13.0329 25.4375Z" fill="#FCFCFC"></path><path d="M15.0446 26.8535C14.8004 26.9707 14.7321 27.0732 14.1462 28.167C13.526 29.3291 13.4674 29.5244 13.653 29.8857C13.7897 30.1543 14.0192 30.291 14.3317 30.291C14.6344 30.291 14.7663 30.2422 14.9274 30.0811C14.9958 30.0127 15.2985 29.4902 15.6061 28.9141C16.2409 27.7275 16.2995 27.5322 16.0993 27.1758C15.8991 26.8193 15.4108 26.6729 15.0446 26.8535Z" fill="#FCFCFC"></path><path d="M17.1979 27.9668C16.9635 28.0693 16.8561 28.2207 16.3922 29.0996C15.8991 30.0176 15.8405 30.1836 15.8991 30.4473C15.9967 30.8672 16.319 31.0967 16.7633 31.0625C17.1784 31.0283 17.276 30.916 17.8327 29.8662C18.2721 29.0459 18.321 28.9238 18.321 28.6992C18.3161 28.3867 18.1842 28.1524 17.9254 28.0108C17.7106 27.8838 17.4176 27.8692 17.1979 27.9668Z" fill="#FCFCFC"></path><path d="M19.3952 29.085C19.0924 29.207 19.0339 29.2803 18.5846 30.1055C18.1598 30.8916 18.1256 30.9697 18.1256 31.2285C18.1256 31.6924 18.443 32 18.9264 32C19.3708 32 19.4733 31.8975 19.9811 30.9648C20.401 30.1982 20.4157 30.1592 20.4206 29.8516C20.4206 29.5977 20.3962 29.5049 20.3083 29.373C20.1081 29.0996 19.6881 28.9629 19.3952 29.085Z" fill="#FCFCFC"></path><path d="M21.2262 30.0957C21.2262 30.1738 21.0944 30.501 20.9284 30.8281C20.7575 31.1651 20.6452 31.4385 20.6696 31.4629C20.694 31.4824 20.8698 31.585 21.0651 31.6826C21.3727 31.8438 21.4508 31.8633 21.6657 31.8438C22.1003 31.7998 22.3981 31.4824 22.3981 31.0625C22.3981 30.6524 22.2565 30.4766 21.6852 30.1641C21.4655 30.0469 21.2751 29.9492 21.2555 29.9492C21.2409 29.9492 21.2262 30.0127 21.2262 30.0957Z" fill="#FCFCFC"></path></svg> 