<?xml version="1.0" encoding="UTF-8"?> <svg xmlns="http://www.w3.org/2000/svg" width="40" height="40" viewBox="0 0 40 40" fill="none"> <rect width="40" height="40" rx="6" fill="#FCFCFC"></rect> <path d="M19.5186 8.01574C19.279 8.65644 19.1071 9.03669 19.055 9.05232C19.0081 9.06794 18.5602 9.09399 18.0601 9.11482C17.0131 9.1565 16.8933 9.17733 16.8725 9.32839C16.8569 9.41694 17.0287 9.57842 17.6799 10.0993C18.133 10.4639 18.5133 10.7817 18.5185 10.8077C18.5289 10.8338 18.4143 11.313 18.2633 11.8651C18.1174 12.4225 18.008 12.9121 18.0237 12.959C18.0445 13.0059 18.107 13.0424 18.1643 13.0424C18.2216 13.0424 18.6696 12.7819 19.154 12.4642L20.0395 11.886L20.925 12.4642C21.4147 12.7819 21.8574 13.0424 21.9147 13.0424C21.9772 13.0424 22.0345 13.0059 22.0554 12.959C22.071 12.9121 21.9616 12.4225 21.8158 11.8651C21.6647 11.313 21.5501 10.8338 21.5605 10.8077C21.5657 10.7817 21.946 10.4639 22.3992 10.1045C23.243 9.42736 23.3472 9.28672 23.1024 9.19296C23.0346 9.16691 22.5502 9.13045 22.0241 9.10961C21.498 9.08878 21.0396 9.06273 21.0084 9.05232C20.9719 9.03669 20.774 8.57309 20.5604 8.01574C20.1958 7.04688 20.1697 7 20.0395 7C19.9041 7 19.8832 7.04167 19.5186 8.01574Z" fill="#1A75BB"></path> <path d="M13.0127 11.0473C12.9866 11.0994 12.8095 11.5526 12.622 12.0526C12.4293 12.5527 12.247 12.9746 12.2157 12.9955C12.1844 13.0163 11.7469 13.0476 11.2416 13.0684C9.66853 13.1309 9.66332 13.1361 10.8145 14.0633C11.2781 14.4331 11.6531 14.7717 11.6531 14.8134C11.6531 14.855 11.5333 15.3291 11.3875 15.8656C11.2416 16.4021 11.1322 16.8813 11.1531 16.923C11.2104 17.0845 11.4344 16.9855 12.2886 16.4229L13.1689 15.8447L14.0597 16.4229C14.966 17.0168 15.1535 17.0897 15.1848 16.8605C15.1952 16.798 15.0806 16.3083 14.9348 15.7718C14.6743 14.8238 14.6691 14.7978 14.7629 14.704C14.815 14.6467 15.1848 14.3394 15.5859 14.0216C16.1589 13.5632 16.3203 13.4018 16.3308 13.2924C16.3516 13.1153 16.3151 13.1101 15.0806 13.0632C14.466 13.0423 14.1378 13.0111 14.1065 12.9694C14.0597 12.9173 13.7992 12.2558 13.4138 11.2296C13.3304 11.0056 13.2887 10.9588 13.1898 10.9588C13.1168 10.9588 13.0439 11.0004 13.0127 11.0473Z" fill="#1A75BB"></path> <path d="M26.6236 11.3338C26.2069 12.4433 26.0194 12.9121 25.9725 12.9694C25.9412 13.0059 25.6287 13.0423 25.0765 13.0632C24.613 13.084 24.1181 13.1101 23.9827 13.1257C23.7483 13.1569 23.7326 13.1674 23.7483 13.2976C23.7587 13.4018 23.9306 13.5684 24.4931 14.0216C24.8942 14.3394 25.2641 14.6467 25.3162 14.704C25.4099 14.7978 25.4047 14.8238 25.1443 15.7718C24.9984 16.3083 24.8838 16.798 24.8942 16.8605C24.9255 17.0897 25.113 17.0168 26.0194 16.4229L26.9101 15.8447L27.7904 16.4229C28.6447 16.9855 28.8686 17.0845 28.9259 16.923C28.9468 16.8813 28.8374 16.3969 28.6863 15.8552C28.5405 15.3082 28.4259 14.829 28.4363 14.7925C28.4467 14.7509 28.8218 14.4227 29.2749 14.0529C30.4209 13.1309 30.4157 13.1257 28.7645 13.058L27.8269 13.0163L27.4883 12.1204C27.0299 10.9327 27.0455 10.9588 26.8945 10.9588C26.7851 10.9588 26.7486 11.0109 26.6236 11.3338Z" fill="#1A75BB"></path> <path d="M19.1957 17.5585C19.1748 18.9962 19.1696 19.1368 19.0602 19.4598C18.7894 20.2671 18.1591 20.9547 16.7631 21.9548L15.9297 22.5487L15.9245 26.6481V30.7423L16.1901 30.9819C16.7214 31.4559 17.3673 31.7789 18.1122 31.9299C18.7269 32.055 20.0812 32.0081 21.2063 31.8258C21.6647 31.7528 22.045 31.6799 22.0606 31.6643C22.071 31.6539 21.9877 31.5341 21.8679 31.3986C21.373 30.8361 21.3886 29.9349 21.9043 29.388L22.0398 29.2421L21.9043 29.1015C21.6335 28.8098 21.5241 28.5233 21.5241 28.0701C21.5241 27.7107 21.5449 27.6065 21.6699 27.3669C21.8106 27.0961 21.8106 27.0804 21.722 27.0179C21.0605 26.5439 20.8261 25.7313 21.1542 25.0542C21.2376 24.8823 21.4043 24.6739 21.5501 24.5437L21.8054 24.3197L21.6699 24.0384C21.4876 23.6738 21.4564 23.2519 21.5762 22.882C21.6699 22.6112 21.6699 22.606 21.5501 22.5122L21.4355 22.4184L21.6282 22.1997C21.7324 22.0746 21.9043 21.7986 22.0085 21.5902L22.2012 21.1995V19.8452C22.2012 18.5847 22.1908 18.4596 22.0866 18.1211C21.7324 16.9855 20.7167 16.1677 19.5082 16.0375L19.2113 16.0062L19.1957 17.5585Z" fill="#1A75BB"></path> <path d="M12.3303 26.6637V30.7527H13.7367H15.1431V26.6637V22.5747H13.7367H12.3303V26.6637Z" fill="#1A75BB"></path> <path d="M22.6388 22.6945C22.5398 22.757 22.42 22.8925 22.3731 22.9914C22.1908 23.3561 22.3054 23.7936 22.6388 24.0176C22.8107 24.1374 22.8419 24.1374 24.3994 24.1374C26.16 24.1374 26.2433 24.1218 26.4361 23.8092C26.5871 23.5696 26.5923 23.1477 26.4465 22.9133C26.2433 22.5903 26.1652 22.5747 24.3994 22.5747C22.8419 22.5747 22.8107 22.5747 22.6388 22.6945Z" fill="#1A75BB"></path> <path d="M22.2794 24.976C21.696 25.2104 21.6074 26.0543 22.1387 26.3772C22.295 26.4762 22.4148 26.4814 24.415 26.4814C26.4309 26.4814 26.5298 26.4762 26.6965 26.3772C27.2018 26.0699 27.1914 25.3302 26.6757 25.0385C26.4725 24.9239 26.4517 24.9187 24.4411 24.9239C23.2222 24.9239 22.3575 24.9447 22.2794 24.976Z" fill="#1A75BB"></path> <path d="M22.8471 27.3148C22.3419 27.4659 22.1127 28.0493 22.3992 28.4608C22.6544 28.8358 22.6231 28.8306 24.2379 28.841C25.6652 28.8514 25.6964 28.8514 25.8787 28.7316C26.384 28.4191 26.3527 27.6534 25.8214 27.3773C25.5974 27.2679 25.5401 27.2627 24.2848 27.2679C23.5712 27.2679 22.9201 27.2887 22.8471 27.3148Z" fill="#1A75BB"></path> <path d="M23.4149 29.6536C22.7482 29.6849 22.6961 29.6953 22.5658 29.8151C22.1335 30.2214 22.196 30.8361 22.7013 31.1069C22.9253 31.2215 22.9617 31.2267 23.9827 31.2111C25.1338 31.1955 25.1651 31.1851 25.4255 30.8361C25.5766 30.6381 25.5766 30.1901 25.4255 29.987C25.1755 29.6536 24.8057 29.5911 23.4149 29.6536Z" fill="#1A75BB"></path> </svg> 