<?xml version="1.0" encoding="UTF-8"?> <svg xmlns="http://www.w3.org/2000/svg" width="40" height="40" viewBox="0 0 40 40" fill="none"> <rect width="40" height="40" rx="6" fill="#FCFCFC"></rect> <path d="M18.6113 7.41016C13.7676 10.7109 7.2002 15.2812 7.10742 15.4082L7 15.5645V23.4111V31.2529L7.1123 31.4678C7.17578 31.585 7.32227 31.7461 7.43457 31.8291L7.64453 31.9756L8.88477 31.9902L10.125 32.0049L10.1348 25.6426C10.1494 19.5635 10.1543 19.2705 10.2422 19.0996C10.3594 18.8555 10.6621 18.5918 10.8916 18.5283C11.1504 18.4551 27.8496 18.4551 28.1084 18.5283C28.3379 18.5918 28.6406 18.8555 28.7578 19.0996C28.8457 19.2705 28.8506 19.5635 28.8652 25.6377L28.875 32H30.0664C31.209 32 31.2578 31.9951 31.4678 31.8877C31.5996 31.8193 31.7461 31.6826 31.8389 31.541L32 31.3066V23.4453C32 15.7158 32 15.5791 31.9023 15.4277C31.8389 15.3154 30.0908 14.0898 26.1113 11.3408C22.9766 9.18262 20.2715 7.32227 20.0957 7.20508C19.8125 7.02441 19.7441 7 19.4951 7C19.2168 7 19.1924 7.00977 18.6113 7.41016Z" fill="#1A75BB"></path> <path d="M16.6094 20.6035C16.5361 20.6426 16.4531 20.7158 16.4238 20.7695C16.3945 20.8281 16.375 21.6826 16.375 23.1621V25.4668L16.5166 25.6084L16.6582 25.75H19.5H22.3418L22.4834 25.6084L22.625 25.4668V23.1621C22.625 21.6777 22.6055 20.8281 22.5762 20.7646C22.4639 20.5547 22.2979 20.5254 21.2578 20.5254H20.2813V20.877C20.2764 21.375 20.208 21.6436 20.0273 21.8291C19.7246 22.1465 19.3389 22.1563 19.0117 21.8633C18.792 21.6631 18.7187 21.4092 18.7187 20.8672V20.5254H17.7324C16.9512 20.5303 16.7119 20.5449 16.6094 20.6035Z" fill="#1A75BB"></path> <path d="M12.8789 26.9414L12.7129 27.1074V29.3584C12.7129 31.7656 12.7178 31.8242 12.9521 31.9512C13.0156 31.9805 14.0312 32 15.8721 32H18.6992L18.8457 31.8486L18.9873 31.7021L19.002 29.4707C19.0166 27.0977 19.0117 27.0537 18.7773 26.873C18.665 26.7852 18.5771 26.7754 17.6396 26.7754H16.6191V27.2295C16.6191 27.8105 16.5068 28.0596 16.1797 28.2305C15.9062 28.3721 15.6572 28.3525 15.4229 28.167C15.1543 27.9668 15.1055 27.8203 15.1055 27.2637V26.7754H14.0752H13.0449L12.8789 26.9414Z" fill="#1A75BB"></path> <path d="M20.2227 26.873C19.9883 27.0537 19.9834 27.0977 19.9981 29.4707L20.0127 31.7021L20.1543 31.8486L20.3008 32H23.1279C24.9688 32 25.9844 31.9805 26.0479 31.9512C26.2822 31.8242 26.2871 31.7656 26.2871 29.3584V27.1074L26.1211 26.9414L25.9551 26.7754H24.9297H23.9043L23.8848 27.3076C23.8701 27.8789 23.8262 27.9961 23.5479 28.2061C23.2158 28.4502 22.6934 28.2988 22.4932 27.8984C22.4004 27.7227 22.3809 27.6006 22.3809 27.2295V26.7754H21.3604C20.4229 26.7754 20.335 26.7852 20.2227 26.873Z" fill="#1A75BB"></path> </svg> 