<?xml version="1.0" encoding="UTF-8"?> <svg xmlns="http://www.w3.org/2000/svg" width="40" height="40" viewBox="0 0 40 40" fill="none"> <rect width="40" height="40" rx="6" fill="#FCFCFC"></rect> <path d="M17.977 8.07324C14.2759 8.83985 12.5083 12.9121 14.4663 16.1641L14.6323 16.4424L14.3052 17.2383C13.9731 18.0586 13.9389 18.2002 14.0415 18.3272C14.1489 18.459 14.3637 18.4053 15.1596 18.0586L15.9409 17.7119L16.2192 17.8926C17.3618 18.6201 18.9634 18.8594 20.3501 18.5029C22.0542 18.0635 23.4702 16.7647 24.0464 15.1094C25.0718 12.1797 23.4116 8.9961 20.4331 8.16602C20.0425 8.0586 19.852 8.03418 19.144 8.01953C18.5532 8.00977 18.2163 8.02442 17.977 8.07324ZM16.8393 12.8779C17.0395 12.9561 17.1665 13.127 17.1665 13.3223C17.1665 13.5371 17.0688 13.6787 16.8784 13.7617C16.5757 13.8838 16.2387 13.6543 16.2387 13.3272C16.2436 13.1221 16.312 13.0098 16.5122 12.9072C16.6782 12.8193 16.688 12.8193 16.8393 12.8779ZM19.1343 12.8779C19.3345 12.9561 19.4614 13.127 19.4614 13.3223C19.4614 13.5371 19.3637 13.6787 19.1733 13.7617C18.7387 13.9375 18.3481 13.4248 18.6362 13.0586C18.7925 12.8584 18.9438 12.8047 19.1343 12.8779ZM21.5171 12.9121C21.6001 12.9512 21.6977 13.0586 21.7368 13.1563C21.7954 13.2979 21.7954 13.3467 21.7368 13.4883C21.6636 13.6641 21.4487 13.8105 21.2632 13.8105C21.1069 13.8105 20.8286 13.5078 20.8286 13.332C20.8286 13.1025 21.0727 12.8486 21.3071 12.8389C21.3413 12.834 21.4389 12.8682 21.5171 12.9121Z" fill="#1A75BB"></path> <path d="M23.4409 9.18164C24.9546 10.8418 25.4575 13.0977 24.7837 15.1924C24.4907 16.1006 24.0171 16.8721 23.2944 17.5996C22.5962 18.3027 21.7368 18.835 20.8628 19.1133C20.4136 19.2549 20.6138 19.3037 21.6343 19.3037C22.4009 19.3037 22.5669 19.2891 22.9526 19.1865C23.5581 19.0303 24.1587 18.7617 24.6665 18.4248L25.0962 18.1367L25.9018 18.415C26.3462 18.5713 26.7563 18.6934 26.8149 18.6934C26.9272 18.6934 27.0786 18.5518 27.0786 18.4443C27.0786 18.4053 26.9028 18.0098 26.6782 17.5605L26.2778 16.7451L26.478 16.3154C26.9419 15.3291 27.0981 14.4209 26.9858 13.4199C26.7759 11.6475 25.7749 10.1387 24.2466 9.30371C23.9389 9.13281 23.3188 8.87891 23.2163 8.87891C23.187 8.87891 23.2895 9.01562 23.4409 9.18164Z" fill="#1A75BB"></path> <path d="M13.1397 21.164C12.627 21.3008 12.2607 21.5156 11.8457 21.9355C11.2109 22.5752 10.957 23.2295 11.0059 24.1133C11.1035 25.8759 12.6856 27.1162 14.4385 26.7939C15.4736 26.6035 16.416 25.7197 16.6797 24.6748C16.7676 24.3379 16.7774 23.6933 16.6992 23.3222C16.6699 23.1806 16.5576 22.8779 16.4453 22.6533C16.0938 21.9258 15.415 21.374 14.6045 21.1592C14.2627 21.0664 13.4912 21.0713 13.1397 21.164Z" fill="#1A75BB"></path> <path d="M26.124 21.1592C25.3428 21.374 24.6543 21.9404 24.3076 22.6533C24.0684 23.1367 24 23.4395 24 23.9814C24 24.7822 24.2588 25.3975 24.8301 25.9736C25.3672 26.5156 25.9434 26.7842 26.6904 26.833C28.3018 26.9404 29.6592 25.7344 29.7471 24.1133C29.7959 23.2295 29.542 22.5752 28.9072 21.9355C28.4873 21.5107 28.1211 21.2959 27.5889 21.1592C27.2324 21.0713 26.4609 21.0713 26.124 21.1592Z" fill="#1A75BB"></path> <path fill-rule="evenodd" clip-rule="evenodd" d="M32.2996 33.5C32.3065 33.3859 32.31 33.2708 32.31 33.155C32.31 30.0318 29.7782 27.5 26.655 27.5C23.5318 27.5 21 30.0318 21 33.155C21 33.2708 21.0035 33.3859 21.0104 33.5H32.2996Z" fill="#1A75BB"></path> <path fill-rule="evenodd" clip-rule="evenodd" d="M19.2996 33.5C19.3065 33.3859 19.31 33.2708 19.31 33.155C19.31 30.0318 16.7782 27.5 13.655 27.5C10.5318 27.5 8 30.0318 8 33.155C8 33.2708 8.00348 33.3859 8.01035 33.5H19.2996Z" fill="#1A75BB"></path> </svg> 