<?xml version="1.0" encoding="UTF-8"?> <svg xmlns="http://www.w3.org/2000/svg" width="40" height="40" viewBox="0 0 40 40" fill="none"> <rect width="40" height="40" rx="6" fill="#FCFCFC"></rect> <path d="M14.6973 9.75512C14.3134 9.92628 14.163 10.1804 13.8466 11.1296L13.5666 11.9906H11.4867C9.18902 11.9906 9.00748 12.0113 8.43176 12.3173C8.01683 12.53 7.51891 13.0279 7.32182 13.4169C6.9795 14.1016 7.00024 13.6036 7.00024 20.9843C7.00024 26.6222 7.01062 27.7218 7.07804 27.9603C7.327 28.9043 8.09463 29.6616 9.05935 29.9105C9.5054 30.0298 29.4948 30.0298 29.9409 29.9105C30.9004 29.6616 31.6732 28.8991 31.9222 27.9603C31.9896 27.7218 32 26.6222 32 20.9739V14.2675L31.8703 13.8733C31.6369 13.1783 31.1961 12.6493 30.5633 12.3122C29.9824 12.0061 29.8423 11.9906 27.1245 11.9906H24.6557L24.3756 11.1296C24.0592 10.1804 23.9088 9.92628 23.525 9.75512C23.3227 9.66176 23.0841 9.65658 19.1111 9.65658C15.1381 9.65658 14.8995 9.66176 14.6973 9.75512ZM20.496 15.3308C21.554 15.6005 22.441 16.1088 23.2138 16.8868C23.4731 17.1461 23.7843 17.5092 23.9088 17.6907C25.0862 19.4438 25.2625 21.5755 24.3808 23.4324C24.0696 24.0859 23.7947 24.4956 23.3486 24.9676C22.5291 25.839 21.3829 26.4718 20.1485 26.7311C19.7439 26.8141 18.4732 26.8141 18.0738 26.7259C16.2118 26.3369 14.7128 25.201 13.8985 23.562C12.7782 21.3266 13.2191 18.671 15.0085 16.8868C15.9109 15.9791 17.0365 15.4034 18.2864 15.2063C18.8259 15.1233 19.9306 15.1804 20.496 15.3308ZM28.2656 15.3256C28.4316 15.4138 28.5457 15.5227 28.6702 15.725C28.8258 15.9843 28.8413 16.0414 28.8258 16.3526C28.805 16.7779 28.639 17.0528 28.2863 17.2602C27.7884 17.5507 27.2438 17.4677 26.8704 17.0372C26.5125 16.6326 26.4762 16.114 26.7718 15.6731C27.109 15.1804 27.7054 15.0403 28.2656 15.3256Z" fill="#1A75BB"></path> <path d="M18.4368 17.5144C17.4203 17.6959 16.4711 18.4013 15.9887 19.3297C15.6827 19.921 15.5894 20.3048 15.5894 20.9895C15.5894 22.0061 15.9006 22.7633 16.6215 23.4843C17.3061 24.1741 18.1205 24.506 19.1111 24.506C20.1018 24.506 20.9161 24.1741 21.6007 23.4843C22.0623 23.0175 22.3165 22.5922 22.5136 21.949C22.664 21.4563 22.6743 20.5953 22.5395 20.0818C22.3995 19.5631 22.0623 18.9615 21.6837 18.5673C20.8435 17.67 19.6609 17.2914 18.4368 17.5144Z" fill="#1A75BB"></path> </svg> 