<?xml version="1.0" encoding="UTF-8"?> <svg xmlns="http://www.w3.org/2000/svg" width="40" height="40" viewBox="0 0 40 40" fill="none"> <rect width="40" height="40" rx="6" fill="#FCFCFC"></rect> <path d="M22.5128 10.341C22.4319 10.3815 22.2446 10.4878 22.103 10.5687L21.8449 10.7155H19.735H17.62L17.4732 10.8622C17.3923 10.9431 17.3265 11.0595 17.3265 11.1202C17.3265 11.2063 17.4378 11.4845 17.4935 11.5351C17.4985 11.5402 18.1361 11.5604 18.9102 11.5756L20.3169 11.6009L19.988 11.7932C19.8058 11.8995 19.654 11.9905 19.654 12.0006C19.654 12.0108 21.7032 13.1998 24.2078 14.6419L28.7617 17.2679L28.7465 19.2817L28.7364 21.3006L28.6099 21.4068C28.3721 21.6092 26.3937 22.7173 26.2975 22.6971C26.2115 22.6819 26.2065 22.5655 26.1812 20.7136L26.1559 18.7403L21.7032 16.1699C19.2543 14.7532 17.2051 13.5692 17.1444 13.5439C17.0583 13.4984 16.8357 13.6097 15.763 14.227L14.4829 14.9657H10.855H7.22207L7.11581 15.0821C6.96402 15.244 6.96402 15.5729 7.11075 15.7044C7.21195 15.7955 7.35362 15.8006 10.5008 15.8157L13.7846 15.8259V18.0269V20.2279H11.6899H9.59006L9.48886 20.3595C9.35225 20.5315 9.35225 20.7339 9.48886 20.9059L9.59006 21.0375H11.6899H13.7846V22.9855V24.9335L10.5008 24.9436C7.35362 24.9588 7.21195 24.9639 7.11075 25.055C6.95896 25.1916 6.96402 25.5356 7.12087 25.6824L7.23725 25.7937H10.5514H13.8605L13.987 25.9404C14.0629 26.0315 15.8136 27.0738 18.3385 28.531C22.2952 30.813 22.5836 30.9699 22.8468 30.9952C23.0542 31.0103 23.1756 30.9901 23.3021 30.9294C23.8132 30.6612 31.6407 26.1226 31.7368 26.0315C32.0101 25.7785 32 26.0366 32 20.6327C32 15.2288 32.0101 15.4869 31.7368 15.2339C31.6407 15.1428 23.798 10.589 23.3123 10.341C23.1099 10.2398 22.7101 10.2348 22.5128 10.341Z" fill="#1A75BB"></path> <path d="M9.0942 10.7762C8.94747 10.847 8.85639 11.0747 8.90193 11.267C8.97276 11.5858 8.86651 11.5756 12.0289 11.5756H14.9029L15.0243 11.4492C15.1812 11.2974 15.1913 11.0292 15.0547 10.8622L14.9585 10.7408L12.0795 10.7307C10.1264 10.7256 9.1701 10.7408 9.0942 10.7762Z" fill="#1A75BB"></path> </svg> 