<?xml version="1.0" encoding="UTF-8"?> <svg xmlns="http://www.w3.org/2000/svg" width="40" height="40" viewBox="0 0 40 40" fill="none"><rect width="40" height="40" rx="6" fill="#1A75BB"></rect><path d="M15.0706 17.7287C15.7429 18.9415 16.5177 20.1054 17.5237 21.1668C18.533 22.2346 19.7881 23.2065 21.4127 24.0367C21.5332 24.0953 21.6471 24.0953 21.7497 24.0546C21.9043 23.996 22.0622 23.8674 22.2169 23.7127C22.3373 23.5923 22.4871 23.4002 22.6434 23.1902C23.2685 22.3681 24.0417 21.3475 25.134 21.8586C25.1584 21.87 25.1763 21.883 25.2007 21.8928L28.8439 23.9879C28.8553 23.9944 28.8683 24.0058 28.8781 24.0123C29.3583 24.3427 29.5569 24.8522 29.5618 25.4301C29.5618 26.0178 29.3453 26.6787 29.0278 27.2371C28.6078 27.9745 27.9893 28.4628 27.2763 28.7852C26.5974 29.0977 25.8421 29.2654 25.1161 29.3728C23.9766 29.5405 22.9087 29.433 21.8164 29.0977C20.7485 28.7673 19.6725 28.2219 18.4972 27.4959L18.4109 27.4405C17.8721 27.1036 17.2893 26.7438 16.7179 26.319C14.6278 24.7399 12.4969 22.4593 11.1083 19.9491C9.94442 17.8427 9.30955 15.5686 9.65629 13.4019C9.84837 12.2135 10.3579 11.1326 11.2467 10.4196C12.0216 9.79454 13.065 9.45269 14.4162 9.57315C14.5708 9.58454 14.7092 9.67407 14.7824 9.80756L17.1184 13.7567C17.4602 14.1995 17.5026 14.6391 17.3154 15.0786C17.1607 15.4383 16.8482 15.7704 16.4217 16.0797C16.2963 16.1871 16.1466 16.2962 15.9887 16.4102C15.4661 16.7895 14.872 17.2273 15.0754 17.7418L15.0706 17.7287Z" fill="#FCFCFC"></path></svg> 