<?xml version="1.0" encoding="UTF-8"?> <svg xmlns="http://www.w3.org/2000/svg" width="45" height="46" viewBox="0 0 45 46" fill="none"> <rect y="0.5625" width="45" height="45" rx="11" fill="#34AADF"></rect> <path fill-rule="evenodd" clip-rule="evenodd" d="M34.9313 23.2031C34.9313 29.991 29.4286 35.4938 22.6407 35.4938C15.8528 35.4938 10.3501 29.991 10.3501 23.2031C10.3501 16.4152 15.8528 10.9125 22.6407 10.9125C29.4286 10.9125 34.9313 16.4152 34.9313 23.2031ZM23.8185 19.4318C21.707 20.3438 15.6189 22.9339 15.6189 22.9339C14.176 23.5176 15.0206 24.0648 15.0206 24.0648C15.0206 24.0648 16.2523 24.5026 17.3081 24.8309C18.3638 25.1592 18.9269 24.7945 18.9269 24.7945C18.9269 24.7945 21.3903 23.1164 23.8889 21.3288C25.6485 20.0885 25.2262 21.1099 24.8039 21.5477C23.8889 22.4962 22.3757 23.9919 21.1087 25.1958C20.5457 25.7065 20.8272 26.1442 21.0736 26.3631C21.79 26.9916 23.4775 28.1345 24.2436 28.6534C24.4558 28.7972 24.5974 28.893 24.6279 28.9168C24.8039 29.0627 25.7893 29.7193 26.3875 29.5734C26.9858 29.4275 27.0561 28.5884 27.0561 28.5884C27.0561 28.5884 27.5136 25.597 27.9359 22.861C28.0142 22.3238 28.0924 21.7979 28.1653 21.3074C28.3549 20.0328 28.5088 18.9981 28.5342 18.6292C28.6398 17.3889 27.3729 17.8996 27.3729 17.8996C27.3729 17.8996 24.6279 19.067 23.8185 19.4318Z" fill="white"></path> </svg> 