<?xml version="1.0" encoding="UTF-8"?> <svg xmlns="http://www.w3.org/2000/svg" width="46" height="46" viewBox="0 0 46 46" fill="none"> <rect x="0.375" y="0.5625" width="45" height="45" rx="11" fill="#00D95F"></rect> <path d="M11.625 33.4127L13.2393 27.4156C11.9374 25.0794 11.5238 22.3533 12.0743 19.7374C12.6249 17.1216 14.1027 14.7916 16.2366 13.1748C18.3705 11.5581 21.0173 10.7632 23.6913 10.9359C26.3654 11.1086 28.8873 12.2374 30.7943 14.1151C32.7014 15.9928 33.8656 18.4935 34.0733 21.1583C34.2811 23.8231 33.5184 26.4733 31.9253 28.6225C30.3322 30.7717 28.0155 32.2757 25.4004 32.8587C22.7852 33.4416 20.047 33.0644 17.6882 31.7961L11.625 33.4127ZM17.9806 29.552L18.3556 29.7738C20.0641 30.7839 22.0596 31.2019 24.0312 30.9627C26.0027 30.7234 27.8396 29.8404 29.2554 28.4511C30.6713 27.0619 31.5867 25.2445 31.8589 23.2822C32.1311 21.3198 31.7449 19.3228 30.7605 17.6022C29.776 15.8817 28.2486 14.5343 26.4163 13.77C24.5839 13.0058 22.5496 12.8675 20.6303 13.3769C18.711 13.8863 17.0145 15.0147 15.8052 16.5862C14.596 18.1577 13.9418 20.084 13.9448 22.0651C13.9432 23.7077 14.3986 25.3185 15.2604 26.7182L15.4956 27.1049L14.5931 30.4522L17.9806 29.552Z" fill="white"></path> <path fill-rule="evenodd" clip-rule="evenodd" d="M27.0817 23.605C26.8618 23.4281 26.6044 23.3037 26.3291 23.241C26.0537 23.1784 25.7677 23.1793 25.4928 23.2436C25.0796 23.4148 24.8127 24.0614 24.5458 24.3847C24.4895 24.4622 24.4068 24.5166 24.3132 24.5376C24.2195 24.5586 24.1215 24.5448 24.0373 24.4988C22.5249 23.908 21.2572 22.8244 20.44 21.4242C20.3703 21.3368 20.3374 21.2259 20.348 21.1147C20.3587 21.0036 20.4122 20.9009 20.4972 20.8283C20.795 20.5343 21.0136 20.1702 21.1328 19.7696C21.1593 19.3278 21.0578 18.8876 20.8404 18.5017C20.6724 17.9607 20.3526 17.4789 19.9189 17.1134C19.6952 17.013 19.4471 16.9794 19.2047 17.0165C18.9622 17.0536 18.7357 17.1599 18.5524 17.3226C18.2343 17.5964 17.9818 17.9378 17.8135 18.3218C17.6452 18.7058 17.5654 19.1226 17.58 19.5414C17.581 19.7766 17.6109 20.0108 17.669 20.2387C17.8166 20.7864 18.0435 21.3096 18.3427 21.7919C18.5585 22.1613 18.794 22.519 19.0482 22.8633C19.8741 23.9942 20.9123 24.9544 22.1052 25.6907C22.7038 26.0648 23.3436 26.369 24.0119 26.5972C24.7061 26.9111 25.4726 27.0316 26.23 26.9459C26.6615 26.8807 27.0704 26.7108 27.4206 26.451C27.7708 26.1912 28.0516 25.8496 28.2384 25.4561C28.3481 25.2184 28.3814 24.9527 28.3337 24.6954C28.2193 24.1692 27.5138 23.8586 27.0817 23.605Z" fill="white"></path> </svg> 