<?xml version="1.0" encoding="UTF-8"?> <svg xmlns="http://www.w3.org/2000/svg" width="33" height="33" viewBox="0 0 33 33" fill="none"><path d="M29.94 21.8105V27.1928C29.94 27.266 29.8815 27.3245 29.8083 27.3245H5.13175C5.05855 27.3245 5 27.266 5 27.1928V20.2978C5 18.1263 5.63436 16.4038 6.89331 15.1741C8.14251 13.9396 9.93823 13.3198 12.2268 13.3198H21.4104V15.8426C21.4104 15.9549 21.547 16.0134 21.6299 15.9354L25.4117 12.261C25.4654 12.2122 25.4654 12.1243 25.4117 12.0755L21.6299 8.39626C21.547 8.31818 21.4104 8.37673 21.4104 8.48897V10.6799H5.59044C5.51237 10.6799 5.45381 10.6165 5.45381 10.5433V5.13663C5.45381 5.05856 5.51725 5 5.59044 5H22.4888C24.7237 5 26.5047 5.63436 27.7783 6.87868C29.0666 8.13275 29.7156 9.86016 29.7156 12.0072C29.7156 14.1543 29.0666 15.8817 27.7783 17.1309C26.5047 18.3752 24.7188 19.0096 22.4888 19.0096H12.8563C12.3146 19.0096 11.9291 19.1169 11.7193 19.3316C11.5046 19.5463 11.3973 19.883 11.3973 20.3515V20.6638C11.3973 21.22 11.8511 21.6739 12.4073 21.6739H29.8034C29.8766 21.6739 29.94 21.7324 29.94 21.8105Z" fill="#1C75BB"></path></svg> 